<svg xmlns="http://www.w3.org/2000/svg" xmlns:xlink="http://www.w3.org/1999/xlink" width="1714pt" height="949pt" viewBox="0.00 0.00 1714.00 948.50">
<g id="graph0" class="graph" transform="scale(1 1) rotate(0) translate(4 944.5)">
<title>DelimitationAnalytique</title>
<polygon fill="#f8f9fa" stroke="none" points="-4,4 -4,-944.5 1710,-944.5 1710,4 -4,4"/>
<text text-anchor="middle" x="853" y="-925.7" font-family="Georgia" font-size="12.00">§10 - Délimitation de l'analytique du Dasein</text>
<text text-anchor="middle" x="853" y="-911.3" font-family="Georgia" font-size="12.00">(vs Anthropologie, Psychologie, Biologie)</text>
<g id="clust3" class="cluster">
<title>cluster_cartesien</title>
<polygon fill="#f8f9fa" stroke="#3b82f6" stroke-dasharray="5,2" points="1524,-544.26 1524,-853.98 1698,-853.98 1698,-544.26 1524,-544.26"/>
<text text-anchor="middle" x="1611" y="-839.18" font-family="Georgia" font-size="12.00" fill="#3b82f6">PROBLÈME CARTÉSIEN</text>
</g>
<g id="clust6" class="cluster">
<title>cluster_phenomeno</title>
<polygon fill="#f8f9fa" stroke="#ec4899" stroke-dasharray="5,2" points="809,-15.02 809,-267.05 1107,-267.05 1107,-15.02 809,-15.02"/>
<text text-anchor="middle" x="958" y="-252.25" font-family="Georgia" font-size="12.00" fill="#ec4899">PHÉNOMÉNOLOGIE PERSONNE</text>
</g>
<g id="clust7" class="cluster">
<title>cluster_anthropo_trad</title>
<polygon fill="#f8f9fa" stroke="#f97316" stroke-dasharray="5,2" points="8,-166.84 8,-431.06 254,-431.06 254,-166.84 8,-166.84"/>
<text text-anchor="middle" x="131" y="-416.26" font-family="Georgia" font-size="12.00" fill="#f97316">ANTHROPOLOGIE TRADITIONNELLE</text>
</g>
<!-- AnalytiqueExist -->
<g id="node1" class="node">
<title>AnalytiqueExist</title>
<polygon fill="#f59e0b" stroke="black" points="1111.08,-803.38 1005.6,-803.38 973,-903.7 940.4,-803.38 834.92,-803.38 920.26,-741.38 887.66,-641.06 973,-703.06 1058.34,-641.06 1025.74,-741.38 1111.08,-803.38"/>
<text text-anchor="middle" x="973" y="-791.28" font-family="Georgia" font-size="9.00" fill="white">ANALYTIQUE</text>
<text text-anchor="middle" x="973" y="-780.48" font-family="Georgia" font-size="9.00" fill="white">EXISTENTIALE</text>
<text text-anchor="middle" x="973" y="-769.68" font-family="Georgia" font-size="9.00" fill="white">DU DASEIN</text>
<text text-anchor="middle" x="973" y="-758.88" font-family="Georgia" font-size="9.00" fill="white">(question ontologique</text>
<text text-anchor="middle" x="973" y="-748.08" font-family="Georgia" font-size="9.00" fill="white">fondamentale)</text>
</g>
<!-- Anthropologie -->
<g id="node2" class="node">
<title>Anthropologie</title>
<polygon fill="#dc2626" stroke="black" points="325.64,-544.26 286.82,-586.07 209.18,-586.07 170.36,-544.26 209.18,-502.46 286.82,-502.46 325.64,-544.26"/>
<text text-anchor="middle" x="248" y="-557.76" font-family="Georgia" font-size="9.00" fill="white">ANTHROPOLOGIE</text>
<text text-anchor="middle" x="248" y="-546.96" font-family="Georgia" font-size="9.00" fill="white">(traditionnelle)</text>
<text text-anchor="middle" x="248" y="-536.16" font-family="Georgia" font-size="9.00" fill="white">ζῷον λόγον ἔχον</text>
<text text-anchor="middle" x="248" y="-525.36" font-family="Georgia" font-size="9.00" fill="white">+ imago Dei</text>
</g>
<!-- AnalytiqueExist&#45;&gt;Anthropologie -->
<g id="edge1" class="edge">
<title>AnalytiqueExist-&gt;Anthropologie</title>
<path fill="none" stroke="#dc2626" stroke-width="2" d="M906.74,-750.72C769.8,-708.01 456.77,-610.38 317.28,-566.87"/>
<polygon fill="#dc2626" stroke="#dc2626" stroke-width="2" points="318.25,-564.61 310.84,-564.86 316.79,-569.28 318.25,-564.61"/>
<text text-anchor="middle" x="506.88" y="-615.86" font-family="Georgia" font-size="8.00">se délimite de</text>
</g>
<!-- Psychologie -->
<g id="node3" class="node">
<title>Psychologie</title>
<polygon fill="#b91c1c" stroke="black" points="935.83,-544.26 896.41,-586.07 817.59,-586.07 778.17,-544.26 817.59,-502.46 896.41,-502.46 935.83,-544.26"/>
<text text-anchor="middle" x="857" y="-557.76" font-family="Georgia" font-size="9.00" fill="white">PSYCHOLOGIE</text>
<text text-anchor="middle" x="857" y="-546.96" font-family="Georgia" font-size="9.00" fill="white">(sciences de l'esprit)</text>
<text text-anchor="middle" x="857" y="-536.16" font-family="Georgia" font-size="9.00" fill="white">vécus, conscience</text>
<text text-anchor="middle" x="857" y="-525.36" font-family="Georgia" font-size="9.00" fill="white">connexion vitale</text>
</g>
<!-- AnalytiqueExist&#45;&gt;Psychologie -->
<g id="edge2" class="edge">
<title>AnalytiqueExist-&gt;Psychologie</title>
<path fill="none" stroke="#b91c1c" stroke-width="2" d="M916.7,-661.64C904.79,-638.41 892.78,-615 882.68,-595.33"/>
<polygon fill="#b91c1c" stroke="#b91c1c" stroke-width="2" points="884.95,-594.37 879.57,-589.26 880.59,-596.61 884.95,-594.37"/>
<text text-anchor="middle" x="918.9" y="-615.86" font-family="Georgia" font-size="8.00">se délimite de</text>
</g>
<!-- Biologie -->
<g id="node4" class="node">
<title>Biologie</title>
<polygon fill="#991b1b" stroke="black" points="1132.02,-544.26 1087.51,-586.07 998.49,-586.07 953.98,-544.26 998.49,-502.46 1087.51,-502.46 1132.02,-544.26"/>
<text text-anchor="middle" x="1043" y="-557.76" font-family="Georgia" font-size="9.00" fill="white">BIOLOGIE</text>
<text text-anchor="middle" x="1043" y="-546.96" font-family="Georgia" font-size="9.00" fill="white">(science de la vie)</text>
<text text-anchor="middle" x="1043" y="-536.16" font-family="Georgia" font-size="9.00" fill="white">rien-que-vivre</text>
<text text-anchor="middle" x="1043" y="-525.36" font-family="Georgia" font-size="9.00" fill="white">interprétation privative</text>
</g>
<!-- AnalytiqueExist&#45;&gt;Biologie -->
<g id="edge3" class="edge">
<title>AnalytiqueExist-&gt;Biologie</title>
<path fill="none" stroke="#991b1b" stroke-width="2" d="M1000.46,-682.66C1009.57,-653.26 1019.38,-621.55 1027.29,-596.01"/>
<polygon fill="#991b1b" stroke="#991b1b" stroke-width="2" points="1029.6,-596.85 1029.33,-589.44 1024.91,-595.4 1029.6,-596.85"/>
<text text-anchor="middle" x="1044.73" y="-615.86" font-family="Georgia" font-size="8.00">se délimite de</text>
</g>
<!-- Sum -->
<g id="node6" class="node">
<title>Sum</title>
<polygon fill="#1e40af" stroke="black" points="1508,-426.26 1408.13,-375.06 1508,-323.86 1607.87,-375.06 1508,-426.26"/>
<text text-anchor="middle" x="1508" y="-388.56" font-family="Georgia" font-size="9.00" fill="white">SUM</text>
<text text-anchor="middle" x="1508" y="-377.76" font-family="Georgia" font-size="9.00" fill="white">(être du Dasein)</text>
<text text-anchor="middle" x="1508" y="-366.96" font-family="Georgia" font-size="9.00" fill="white">question ontologique</text>
<text text-anchor="middle" x="1508" y="-356.16" font-family="Georgia" font-size="9.00" fill="white">de l'être</text>
</g>
<!-- AnalytiqueExist&#45;&gt;Sum -->
<g id="edge6" class="edge">
<title>AnalytiqueExist-&gt;Sum</title>
<path fill="none" stroke="#f59e0b" d="M1028.78,-743.09C1090.37,-710.81 1191.37,-654.76 1271,-595.46 1346.53,-539.22 1424.97,-462.33 1469.99,-416.1"/>
<polygon fill="#f59e0b" stroke="#f59e0b" points="1471.68,-417.88 1474.79,-411.15 1468.16,-414.47 1471.68,-417.88"/>
<text text-anchor="middle" x="1422.5" y="-541.86" font-family="Georgia" font-size="8.00">prend pour thème</text>
</g>
<!-- Methode -->
<g id="node24" class="node">
<title>Methode</title>
<polygon fill="#fef3c7" stroke="black" points="753.81,-575.26 630.19,-575.26 630.19,-513.26 759.81,-513.26 759.81,-569.26 753.81,-575.26"/>
<polyline fill="none" stroke="black" points="753.81,-575.26 753.81,-569.26"/>
<polyline fill="none" stroke="black" points="759.81,-569.26 753.81,-569.26"/>
<text text-anchor="middle" x="695" y="-563.16" font-family="Georgia" font-size="9.00" fill="#92400e">DÉLIMITATION</text>
<text text-anchor="middle" x="695" y="-552.36" font-family="Georgia" font-size="9.00" fill="#92400e">MÉTHODOLOGIQUE</text>
<text text-anchor="middle" x="695" y="-541.56" font-family="Georgia" font-size="9.00" fill="#92400e">Pas critique du travail</text>
<text text-anchor="middle" x="695" y="-530.76" font-family="Georgia" font-size="9.00" fill="#92400e">positif mais des</text>
<text text-anchor="middle" x="695" y="-519.96" font-family="Georgia" font-size="9.00" fill="#92400e">soubassements ontologiques</text>
</g>
<!-- AnalytiqueExist&#45;&gt;Methode -->
<!-- Anthropologie&#45;&gt;Anthropologie -->
<g id="edge28" class="edge">
<title>Anthropologie-&gt;Anthropologie</title>
<path fill="none" stroke="#dc2626" stroke-dasharray="1,5" d="M313.26,-558.02C330.54,-557.23 343.64,-552.65 343.64,-544.26 343.64,-537.26 334.49,-532.9 321.39,-531.2"/>
<polygon fill="#dc2626" stroke="#dc2626" points="321.95,-528.79 314.77,-530.64 321.54,-533.68 321.95,-528.79"/>
<text text-anchor="middle" x="380.43" y="-546.66" font-family="Georgia" font-size="8.00">corps + âme + esprit</text>
<text text-anchor="middle" x="380.43" y="-537.06" font-family="Georgia" font-size="8.00">(présuppose totalité)</text>
</g>
<!-- ZoonLogon -->
<g id="node17" class="node">
<title>ZoonLogon</title>
<polygon fill="#f97316" stroke="black" points="124,-400.66 16,-400.66 16,-349.46 124,-349.46 124,-400.66"/>
<text text-anchor="middle" x="70" y="-388.56" font-family="Georgia" font-size="9.00" fill="white">ΖΩΟΝ ΛΟΓΟΝ ΕΧΟΝ</text>
<text text-anchor="middle" x="70" y="-377.76" font-family="Georgia" font-size="9.00" fill="white">(animal rationale)</text>
<text text-anchor="middle" x="70" y="-366.96" font-family="Georgia" font-size="9.00" fill="white">être-là-devant</text>
<text text-anchor="middle" x="70" y="-356.16" font-family="Georgia" font-size="9.00" fill="white">+ logos obscur</text>
</g>
<!-- Anthropologie&#45;&gt;ZoonLogon -->
<g id="edge16" class="edge">
<title>Anthropologie-&gt;ZoonLogon</title>
<path fill="none" stroke="#f97316" d="M203.22,-508.62C181.35,-491.05 155.08,-468.93 133,-447.46 120.06,-434.88 106.71,-420.05 95.64,-407.17"/>
<polygon fill="#f97316" stroke="#f97316" points="97.79,-405.92 91.38,-402.18 94.06,-409.1 97.79,-405.92"/>
<text text-anchor="middle" x="187.1" y="-467.86" font-family="Georgia" font-size="8.00">1er fil directeur</text>
</g>
<!-- ImageiDei -->
<g id="node18" class="node">
<title>ImageiDei</title>
<polygon fill="#ea580c" stroke="black" points="245.64,-400.66 142.36,-400.66 142.36,-349.46 245.64,-349.46 245.64,-400.66"/>
<text text-anchor="middle" x="194" y="-388.56" font-family="Georgia" font-size="9.00" fill="white">IMAGO DEI</text>
<text text-anchor="middle" x="194" y="-377.76" font-family="Georgia" font-size="9.00" fill="white">(Genèse 1,26)</text>
<text text-anchor="middle" x="194" y="-366.96" font-family="Georgia" font-size="9.00" fill="white">faciamus hominem</text>
<text text-anchor="middle" x="194" y="-356.16" font-family="Georgia" font-size="9.00" fill="white">ad imaginem nostram</text>
</g>
<!-- Anthropologie&#45;&gt;ImageiDei -->
<g id="edge17" class="edge">
<title>Anthropologie-&gt;ImageiDei</title>
<path fill="none" stroke="#ea580c" d="M234.79,-502.36C225.51,-473.62 213.26,-435.68 204.61,-408.91"/>
<polygon fill="#ea580c" stroke="#ea580c" points="207,-408.33 202.51,-402.42 202.33,-409.84 207,-408.33"/>
<text text-anchor="middle" x="257.12" y="-467.86" font-family="Georgia" font-size="8.00">2ème fil directeur</text>
</g>
<!-- Fundament -->
<g id="node20" class="node">
<title>Fundament</title>
<polygon fill="#e5e7eb" stroke="black" points="372.6,-406.06 263.4,-406.06 263.4,-344.06 378.6,-344.06 378.6,-400.06 372.6,-406.06"/>
<polyline fill="none" stroke="black" points="372.6,-406.06 372.6,-400.06"/>
<polyline fill="none" stroke="black" points="378.6,-400.06 372.6,-400.06"/>
<text text-anchor="middle" x="321" y="-393.96" font-family="Georgia" font-size="9.00" fill="#374151">SOUBASSEMENTS</text>
<text text-anchor="middle" x="321" y="-383.16" font-family="Georgia" font-size="9.00" fill="#374151">ONTOLOGIQUES</text>
<text text-anchor="middle" x="321" y="-372.36" font-family="Georgia" font-size="9.00" fill="#374151">toujours déjà 'là'</text>
<text text-anchor="middle" x="321" y="-361.56" font-family="Georgia" font-size="9.00" fill="#374151">non empiriquement</text>
<text text-anchor="middle" x="321" y="-350.76" font-family="Georgia" font-size="9.00" fill="#374151">déductibles</text>
</g>
<!-- Anthropologie&#45;&gt;Fundament -->
<g id="edge19" class="edge">
<title>Anthropologie-&gt;Fundament</title>
<path fill="none" stroke="#6b7280" stroke-dasharray="5,2" d="M274.71,-502.25C279.84,-493.47 284.88,-484.12 289,-475.06 297.86,-455.58 305.37,-432.93 310.89,-414.21"/>
<polygon fill="#6b7280" stroke="#6b7280" points="313.2,-415.04 312.78,-407.64 308.49,-413.69 313.2,-415.04"/>
<text text-anchor="middle" x="308.74" y="-467.86" font-family="Georgia" font-size="8.00">négligent</text>
</g>
<!-- Sujet -->
<g id="node8" class="node">
<title>Sujet</title>
<polygon fill="#7c3aed" stroke="black" points="747,-447.46 624.27,-338.85 869.73,-338.85 747,-447.46"/>
<text text-anchor="middle" x="747" y="-388.56" font-family="Georgia" font-size="9.00" fill="white">SUJET</text>
<text text-anchor="middle" x="747" y="-377.76" font-family="Georgia" font-size="9.00" fill="white">(subjectum)</text>
<text text-anchor="middle" x="747" y="-366.96" font-family="Georgia" font-size="9.00" fill="white">ὑποκείμενον</text>
<text text-anchor="middle" x="747" y="-356.16" font-family="Georgia" font-size="9.00" fill="white">substantialisation</text>
</g>
<!-- Psychologie&#45;&gt;Sujet -->
<g id="edge7" class="edge">
<title>Psychologie-&gt;Sujet</title>
<path fill="none" stroke="#7c3aed" d="M830.09,-502.36C815.44,-480.1 797.17,-452.31 781.48,-428.47"/>
<polygon fill="#7c3aed" stroke="#7c3aed" points="783.65,-427.31 777.75,-422.8 779.55,-430 783.65,-427.31"/>
<text text-anchor="middle" x="826" y="-467.86" font-family="Georgia" font-size="8.00">emploie</text>
</g>
<!-- Bewusstsein -->
<g id="node9" class="node">
<title>Bewusstsein</title>
<polygon fill="#5b21b6" stroke="black" points="501,-447.46 396.13,-338.85 605.87,-338.85 501,-447.46"/>
<text text-anchor="middle" x="501" y="-388.56" font-family="Georgia" font-size="9.00" fill="white">CONSCIENCE</text>
<text text-anchor="middle" x="501" y="-377.76" font-family="Georgia" font-size="9.00" fill="white">(Bewußtsein)</text>
<text text-anchor="middle" x="501" y="-366.96" font-family="Georgia" font-size="9.00" fill="white">réduction à</text>
<text text-anchor="middle" x="501" y="-356.16" font-family="Georgia" font-size="9.00" fill="white">une chose</text>
</g>
<!-- Psychologie&#45;&gt;Bewusstsein -->
<g id="edge8" class="edge">
<title>Psychologie-&gt;Bewusstsein</title>
<path fill="none" stroke="#5b21b6" d="M807.76,-512.53C795.39,-505.56 781.94,-498.58 769,-493.06 703.34,-465.06 680.07,-476.81 615,-447.46 592.24,-437.2 568.61,-423.06 548.81,-410.06"/>
<polygon fill="#5b21b6" stroke="#5b21b6" points="550.42,-408.19 543.23,-406.36 547.71,-412.27 550.42,-408.19"/>
<text text-anchor="middle" x="724.79" y="-467.86" font-family="Georgia" font-size="8.00">emploie</text>
</g>
<!-- Person -->
<g id="node10" class="node">
<title>Person</title>
<polygon fill="#4c1d95" stroke="black" points="1009,-447.46 888.22,-338.85 1129.78,-338.85 1009,-447.46"/>
<text text-anchor="middle" x="1009" y="-388.56" font-family="Georgia" font-size="9.00" fill="white">PERSONNE</text>
<text text-anchor="middle" x="1009" y="-377.76" font-family="Georgia" font-size="9.00" fill="white">(Person)</text>
<text text-anchor="middle" x="1009" y="-366.96" font-family="Georgia" font-size="9.00" fill="white">unité du vécu</text>
<text text-anchor="middle" x="1009" y="-356.16" font-family="Georgia" font-size="9.00" fill="white">non-substantielle</text>
</g>
<!-- Psychologie&#45;&gt;Person -->
<g id="edge9" class="edge">
<title>Psychologie-&gt;Person</title>
<path fill="none" stroke="#4c1d95" d="M882.92,-501.98C891.25,-489.79 900.87,-476.71 910.7,-465.46 925.98,-447.99 944.44,-430.43 961.22,-415.56"/>
<polygon fill="#4c1d95" stroke="#4c1d95" points="962.53,-417.67 966.18,-411.21 959.3,-413.99 962.53,-417.67"/>
<text text-anchor="middle" x="924.85" y="-467.86" font-family="Georgia" font-size="8.00">emploie</text>
</g>
<!-- Dilthey -->
<g id="node11" class="node">
<title>Dilthey</title>
<ellipse fill="#059669" stroke="black" cx="1203" cy="-375.06" rx="55.66" ry="55.66"/>
<text text-anchor="middle" x="1203" y="-388.56" font-family="Georgia" font-size="9.00" fill="white">DILTHEY</text>
<text text-anchor="middle" x="1203" y="-377.76" font-family="Georgia" font-size="9.00" fill="white">'psychologie comme</text>
<text text-anchor="middle" x="1203" y="-366.96" font-family="Georgia" font-size="9.00" fill="white">science de l'esprit'</text>
<text text-anchor="middle" x="1203" y="-356.16" font-family="Georgia" font-size="9.00" fill="white">connexion vitale</text>
</g>
<!-- Psychologie&#45;&gt;Dilthey -->
<g id="edge10" class="edge">
<title>Psychologie-&gt;Dilthey</title>
<path fill="none" stroke="#059669" d="M899.11,-504.62C917.62,-489.84 940.45,-474.41 963.8,-465.46 1036.89,-437.45 1069.25,-483 1139,-447.46 1149,-442.37 1158.18,-435 1166.27,-426.91"/>
<polygon fill="#059669" stroke="#059669" points="1167.59,-429.07 1170.64,-422.31 1164.04,-425.69 1167.59,-429.07"/>
<text text-anchor="middle" x="991.4" y="-467.86" font-family="Georgia" font-size="8.00">représentée par</text>
</g>
<!-- Psychologie&#45;&gt;Fundament -->
<g id="edge20" class="edge">
<title>Psychologie-&gt;Fundament</title>
<path fill="none" stroke="#6b7280" stroke-dasharray="5,2" d="M808.82,-511.22C796.31,-504.19 782.53,-497.53 769,-493.06 687.81,-466.28 463.15,-486.32 387,-447.46 371.1,-439.35 357.08,-425.77 346.1,-412.61"/>
<polygon fill="#6b7280" stroke="#6b7280" points="348.2,-411.31 341.9,-407.39 344.38,-414.38 348.2,-411.31"/>
<text text-anchor="middle" x="592.47" y="-467.86" font-family="Georgia" font-size="8.00">négligent</text>
</g>
<!-- Leben -->
<g id="node13" class="node">
<title>Leben</title>
<ellipse fill="#34d399" stroke="black" cx="1342" cy="-375.06" rx="48.22" ry="48.22"/>
<text text-anchor="middle" x="1342" y="-388.56" font-family="Georgia" font-size="9.00" fill="#1f2937">VIE</text>
<text text-anchor="middle" x="1342" y="-377.76" font-family="Georgia" font-size="9.00" fill="#1f2937">(Leben)</text>
<text text-anchor="middle" x="1342" y="-366.96" font-family="Georgia" font-size="9.00" fill="#1f2937">genre d'être</text>
<text text-anchor="middle" x="1342" y="-356.16" font-family="Georgia" font-size="9.00" fill="#1f2937">non questionné</text>
</g>
<!-- Biologie&#45;&gt;Leben -->
<g id="edge26" class="edge">
<title>Biologie-&gt;Leben</title>
<path fill="none" stroke="#991b1b" d="M1076.46,-501.97C1089.93,-488.12 1106.54,-474.03 1124.57,-465.46 1182.61,-437.91 1210.04,-475.19 1268,-447.46 1282.26,-440.64 1295.51,-429.99 1306.75,-418.98"/>
<polygon fill="#991b1b" stroke="#991b1b" points="1308.2,-421 1311.37,-414.29 1304.71,-417.56 1308.2,-421"/>
<text text-anchor="middle" x="1145.79" y="-467.86" font-family="Georgia" font-size="8.00">s'appuie sur</text>
</g>
<!-- Biologie&#45;&gt;Fundament -->
<g id="edge21" class="edge">
<title>Biologie-&gt;Fundament</title>
<path fill="none" stroke="#6b7280" stroke-dasharray="5,2" d="M1039.85,-502.15C1036.62,-488.31 1030.48,-474.19 1019,-465.46 963.08,-422.95 450.95,-476.53 387,-447.46 370.62,-440.02 356.44,-426.4 345.47,-413.04"/>
<polygon fill="#6b7280" stroke="#6b7280" points="347.54,-411.7 341.28,-407.71 343.69,-414.73 347.54,-411.7"/>
<text text-anchor="middle" x="1044.35" y="-467.86" font-family="Georgia" font-size="8.00">négligent</text>
</g>
<!-- CogitoSum -->
<g id="node5" class="node">
<title>CogitoSum</title>
<polygon fill="#3b82f6" stroke="black" points="1611,-823.58 1531.62,-772.38 1611,-721.18 1690.38,-772.38 1611,-823.58"/>
<text text-anchor="middle" x="1611" y="-785.88" font-family="Georgia" font-size="9.00" fill="white">COGITO SUM</text>
<text text-anchor="middle" x="1611" y="-775.08" font-family="Georgia" font-size="9.00" fill="white">(Descartes)</text>
<text text-anchor="middle" x="1611" y="-764.28" font-family="Georgia" font-size="9.00" fill="white">cogitare élaboré</text>
<text text-anchor="middle" x="1611" y="-753.48" font-family="Georgia" font-size="9.00" fill="white">sum négligé</text>
</g>
<!-- CogitoSum&#45;&gt;Sum -->
<g id="edge4" class="edge">
<title>CogitoSum-&gt;Sum</title>
<path fill="none" stroke="#1e40af" d="M1586.57,-736.62C1564.07,-702.47 1532.07,-647.99 1517.77,-595.46 1503.13,-541.72 1502.02,-477.87 1503.76,-432.94"/>
<polygon fill="#1e40af" stroke="#1e40af" points="1506.2,-433.11 1504.06,-426.01 1501.31,-432.9 1506.2,-433.11"/>
<text text-anchor="middle" x="1530.38" y="-541.86" font-family="Georgia" font-size="8.00">néglige</text>
</g>
<!-- Cogitare -->
<g id="node7" class="node">
<title>Cogitare</title>
<polygon fill="#1d4ed8" stroke="black" points="1618,-595.46 1551.65,-544.26 1618,-493.06 1684.35,-544.26 1618,-595.46"/>
<text text-anchor="middle" x="1618" y="-557.76" font-family="Georgia" font-size="9.00" fill="white">COGITARE</text>
<text text-anchor="middle" x="1618" y="-546.96" font-family="Georgia" font-size="9.00" fill="white">(cogitations)</text>
<text text-anchor="middle" x="1618" y="-536.16" font-family="Georgia" font-size="9.00" fill="white">genre d'être</text>
<text text-anchor="middle" x="1618" y="-525.36" font-family="Georgia" font-size="9.00" fill="white">indéterminé</text>
</g>
<!-- CogitoSum&#45;&gt;Cogitare -->
<g id="edge5" class="edge">
<title>CogitoSum-&gt;Cogitare</title>
<path fill="none" stroke="#1d4ed8" d="M1612.54,-721.76C1613.62,-686.71 1615.08,-639.63 1616.22,-602.91"/>
<polygon fill="#1d4ed8" stroke="#1d4ed8" points="1618.65,-603.36 1616.42,-596.28 1613.76,-603.2 1618.65,-603.36"/>
<text text-anchor="middle" x="1628.79" y="-615.86" font-family="Georgia" font-size="8.00">élabore</text>
</g>
<!-- TermesEvites -->
<g id="node26" class="node">
<title>TermesEvites</title>
<polygon fill="#ecfdf5" stroke="black" points="793,-236.84 681,-236.84 681,-164.04 799,-164.04 799,-230.84 793,-236.84"/>
<polyline fill="none" stroke="black" points="793,-236.84 793,-230.84"/>
<polyline fill="none" stroke="black" points="799,-230.84 793,-230.84"/>
<text text-anchor="middle" x="740" y="-224.74" font-family="Georgia" font-size="9.00" fill="#065f46">TERMES ÉVITÉS :</text>
<text text-anchor="middle" x="740" y="-213.94" font-family="Georgia" font-size="9.00" fill="#065f46">'sujet', 'âme', 'conscience',</text>
<text text-anchor="middle" x="740" y="-203.14" font-family="Georgia" font-size="9.00" fill="#065f46">'esprit', 'personne',</text>
<text text-anchor="middle" x="740" y="-192.34" font-family="Georgia" font-size="9.00" fill="#065f46">'vie', 'homme'</text>
<text text-anchor="middle" x="740" y="-181.54" font-family="Georgia" font-size="9.00" fill="#065f46">(indétermination</text>
<text text-anchor="middle" x="740" y="-170.74" font-family="Georgia" font-size="9.00" fill="#065f46">ontologique)</text>
</g>
<!-- Sujet&#45;&gt;TermesEvites -->
<!-- Husserl -->
<g id="node14" class="node">
<title>Husserl</title>
<ellipse fill="#ec4899" stroke="black" cx="877" cy="-200.44" rx="60.07" ry="36.2"/>
<text text-anchor="middle" x="877" y="-213.94" font-family="Georgia" font-size="9.00" fill="white">HUSSERL</text>
<text text-anchor="middle" x="877" y="-203.14" font-family="Georgia" font-size="9.00" fill="white">constitution</text>
<text text-anchor="middle" x="877" y="-192.34" font-family="Georgia" font-size="9.00" fill="white">personnalité</text>
<text text-anchor="middle" x="877" y="-181.54" font-family="Georgia" font-size="9.00" fill="white">≠ chose naturelle</text>
</g>
<!-- Person&#45;&gt;Husserl -->
<g id="edge13" class="edge">
<title>Person-&gt;Husserl</title>
<path fill="none" stroke="#ec4899" d="M981.97,-338.71C960.09,-310.1 929.31,-269.85 906.74,-240.33"/>
<polygon fill="#ec4899" stroke="#ec4899" points="908.88,-239.1 902.68,-235.03 904.99,-242.08 908.88,-239.1"/>
<text text-anchor="middle" x="961.05" y="-277.45" font-family="Georgia" font-size="8.00">analysée par</text>
</g>
<!-- Scheler -->
<g id="node15" class="node">
<title>Scheler</title>
<ellipse fill="#db2777" stroke="black" cx="1027" cy="-200.44" rx="72.18" ry="36.2"/>
<text text-anchor="middle" x="1027" y="-213.94" font-family="Georgia" font-size="9.00" fill="white">SCHELER</text>
<text text-anchor="middle" x="1027" y="-203.14" font-family="Georgia" font-size="9.00" fill="white">personne = unité</text>
<text text-anchor="middle" x="1027" y="-192.34" font-family="Georgia" font-size="9.00" fill="white">du vécu</text>
<text text-anchor="middle" x="1027" y="-181.54" font-family="Georgia" font-size="9.00" fill="white">accomplisseur d'actes</text>
</g>
<!-- Person&#45;&gt;Scheler -->
<g id="edge14" class="edge">
<title>Person-&gt;Scheler</title>
<path fill="none" stroke="#db2777" d="M1012.69,-338.71C1015.5,-311.69 1019.4,-274.28 1022.42,-245.35"/>
<polygon fill="#db2777" stroke="#db2777" points="1024.84,-245.76 1023.13,-238.55 1019.97,-245.25 1024.84,-245.76"/>
<text text-anchor="middle" x="1041.08" y="-277.45" font-family="Georgia" font-size="8.00">analysée par</text>
</g>
<!-- Dilthey&#45;&gt;Leben -->
<g id="edge12" class="edge">
<title>Dilthey-&gt;Leben</title>
<path fill="none" stroke="#34d399" d="M1259.14,-375.06C1267.73,-375.06 1276.6,-375.06 1285.2,-375.06"/>
<polygon fill="#34d399" stroke="#34d399" points="1285.18,-377.51 1292.18,-375.06 1285.18,-372.61 1285.18,-377.51"/>
<text text-anchor="middle" x="1276.22" y="-380.46" font-family="Georgia" font-size="8.00">vise</text>
</g>
<!-- Bergson -->
<g id="node12" class="node">
<title>Bergson</title>
<ellipse fill="#10b981" stroke="black" cx="1500" cy="-59.22" rx="59.22" ry="59.22"/>
<text text-anchor="middle" x="1500" y="-72.72" font-family="Georgia" font-size="9.00" fill="white">BERGSON</text>
<text text-anchor="middle" x="1500" y="-61.92" font-family="Georgia" font-size="9.00" fill="white">'élan vital'</text>
<text text-anchor="middle" x="1500" y="-51.12" font-family="Georgia" font-size="9.00" fill="white">vie comme totalité</text>
<text text-anchor="middle" x="1500" y="-40.32" font-family="Georgia" font-size="9.00" fill="white">limites conceptuelles</text>
</g>
<!-- Leben&#45;&gt;AnalytiqueExist -->
<g id="edge27" class="edge">
<title>Leben-&gt;AnalytiqueExist</title>
<path fill="none" stroke="#f59e0b" stroke-dasharray="5,2" d="M1307.66,-409.14C1275.08,-440.61 1229.95,-484.4 1222.13,-493.06 1183.25,-536.19 1179.12,-551.67 1141,-595.46 1109.94,-631.15 1073.89,-669.29 1043.17,-700.91"/>
<polygon fill="#f59e0b" stroke="#f59e0b" points="1041.68,-698.92 1038.55,-705.65 1045.19,-702.34 1041.68,-698.92"/>
<text text-anchor="middle" x="1246.57" y="-541.86" font-family="Georgia" font-size="8.00">accessible par</text>
</g>
<!-- Leben&#45;&gt;Bergson -->
<g id="edge11" class="edge">
<title>Leben-&gt;Bergson</title>
<path fill="none" stroke="#10b981" d="M1363.47,-331.4C1390.96,-276.81 1438.74,-181.91 1469.86,-120.09"/>
<polygon fill="#10b981" stroke="#10b981" points="1471.93,-121.43 1472.89,-114.07 1467.55,-119.23 1471.93,-121.43"/>
<text text-anchor="middle" x="1473.13" y="-198.04" font-family="Georgia" font-size="8.00">thématisée par</text>
</g>
<!-- Question être personnel non posée -->
<g id="node22" class="node">
<title>Question être personnel non posée</title>
<ellipse fill="lightgrey" stroke="black" cx="1205" cy="-59.22" rx="90.14" ry="18"/>
<text text-anchor="middle" x="1205" y="-56.52" font-family="Georgia" font-size="9.00">Question être personnel non posée</text>
</g>
<!-- Husserl&#45;&gt;Question être personnel non posée -->
<!-- Akte -->
<g id="node16" class="node">
<title>Akte</title>
<ellipse fill="#be185d" stroke="black" cx="1019" cy="-59.22" rx="77.97" ry="36.2"/>
<text text-anchor="middle" x="1019" y="-72.72" font-family="Georgia" font-size="9.00" fill="white">ACTES</text>
<text text-anchor="middle" x="1019" y="-61.92" font-family="Georgia" font-size="9.00" fill="white">(intentionnels)</text>
<text text-anchor="middle" x="1019" y="-51.12" font-family="Georgia" font-size="9.00" fill="white">non-psychiques</text>
<text text-anchor="middle" x="1019" y="-40.32" font-family="Georgia" font-size="9.00" fill="white">dans l'accomplissement</text>
</g>
<!-- Scheler&#45;&gt;Akte -->
<g id="edge15" class="edge">
<title>Scheler-&gt;Akte</title>
<path fill="none" stroke="#be185d" d="M1024.96,-163.95C1023.91,-145.71 1022.62,-123.31 1021.52,-104"/>
<polygon fill="#be185d" stroke="#be185d" points="1023.97,-104.01 1021.12,-97.16 1019.08,-104.29 1023.97,-104.01"/>
<text text-anchor="middle" x="1053.1" y="-138.84" font-family="Georgia" font-size="8.00">accomplisseur d'</text>
</g>
<!-- Scheler&#45;&gt;Question être personnel non posée -->
<!-- QuestionEtre -->
<g id="node23" class="node">
<title>QuestionEtre</title>
<polygon fill="#fecaca" stroke="black" points="1416.77,-79.42 1313.23,-79.42 1313.23,-39.02 1422.77,-39.02 1422.77,-73.42 1416.77,-79.42"/>
<polyline fill="none" stroke="black" points="1416.77,-79.42 1416.77,-73.42"/>
<polyline fill="none" stroke="black" points="1422.77,-73.42 1416.77,-73.42"/>
<text text-anchor="middle" x="1368" y="-67.32" font-family="Georgia" font-size="9.00" fill="#7f1d1d">QUESTION DE L'ÊTRE</text>
<text text-anchor="middle" x="1368" y="-56.52" font-family="Georgia" font-size="9.00" fill="#7f1d1d">PERSONNEL</text>
<text text-anchor="middle" x="1368" y="-45.72" font-family="Georgia" font-size="9.00" fill="#7f1d1d">NON POSÉE</text>
</g>
<!-- Scheler&#45;&gt;QuestionEtre -->
<!-- Transcendenz -->
<g id="node19" class="node">
<title>Transcendenz</title>
<polygon fill="#c2410c" stroke="black" points="234.89,-226.04 139.11,-226.04 139.11,-174.84 234.89,-174.84 234.89,-226.04"/>
<text text-anchor="middle" x="187" y="-213.94" font-family="Georgia" font-size="9.00" fill="white">TRANSCENDANCE</text>
<text text-anchor="middle" x="187" y="-203.14" font-family="Georgia" font-size="9.00" fill="white">(moderne)</text>
<text text-anchor="middle" x="187" y="-192.34" font-family="Georgia" font-size="9.00" fill="white">aspiration vers</text>
<text text-anchor="middle" x="187" y="-181.54" font-family="Georgia" font-size="9.00" fill="white">le plus haut</text>
</g>
<!-- ImageiDei&#45;&gt;Transcendenz -->
<g id="edge18" class="edge">
<title>ImageiDei-&gt;Transcendenz</title>
<path fill="none" stroke="#c2410c" d="M192.98,-348.96C191.76,-318.7 189.69,-267.77 188.34,-234.38"/>
<polygon fill="#c2410c" stroke="#c2410c" points="190.8,-234.7 188.07,-227.81 185.9,-234.9 190.8,-234.7"/>
<text text-anchor="middle" x="219.67" y="-277.45" font-family="Georgia" font-size="8.00">déthéologisée en</text>
</g>
<!-- Citations -->
<g id="node25" class="node">
<title>Citations</title>
<polygon fill="#f3e8ff" stroke="black" points="231.23,-84.82 136.77,-84.82 136.77,-33.62 237.23,-33.62 237.23,-78.82 231.23,-84.82"/>
<polyline fill="none" stroke="black" points="231.23,-84.82 231.23,-78.82"/>
<polyline fill="none" stroke="black" points="237.23,-78.82 231.23,-78.82"/>
<text text-anchor="middle" x="187" y="-72.72" font-family="Georgia" font-size="9.00" fill="#581c87">CALVIN &amp; ZWINGLI</text>
<text text-anchor="middle" x="187" y="-61.92" font-family="Georgia" font-size="9.00" fill="#581c87">'transcenderet usque</text>
<text text-anchor="middle" x="187" y="-51.12" font-family="Georgia" font-size="9.00" fill="#581c87">ad Deum'</text>
<text text-anchor="middle" x="187" y="-40.32" font-family="Georgia" font-size="9.00" fill="#581c87">'imago Dei'</text>
</g>
<!-- Transcendenz&#45;&gt;Citations -->
<!-- Vorhanden -->
<g id="node21" class="node">
<title>Vorhanden</title>
<polygon fill="#d1d5db" stroke="black" points="361.8,-226.04 274.2,-226.04 274.2,-174.84 367.8,-174.84 367.8,-220.04 361.8,-226.04"/>
<polyline fill="none" stroke="black" points="361.8,-226.04 361.8,-220.04"/>
<polyline fill="none" stroke="black" points="367.8,-220.04 361.8,-220.04"/>
<text text-anchor="middle" x="321" y="-213.94" font-family="Georgia" font-size="9.00" fill="#374151">ÊTRE-LÀ-DEVANT</text>
<text text-anchor="middle" x="321" y="-203.14" font-family="Georgia" font-size="9.00" fill="#374151">(Vorhandenheit)</text>
<text text-anchor="middle" x="321" y="-192.34" font-family="Georgia" font-size="9.00" fill="#374151">mode d'être</text>
<text text-anchor="middle" x="321" y="-181.54" font-family="Georgia" font-size="9.00" fill="#374151">par défaut</text>
</g>
<!-- Fundament&#45;&gt;Vorhanden -->
<g id="edge22" class="edge">
<title>Fundament-&gt;Vorhanden</title>
<path fill="none" stroke="#4b5563" d="M321,-343.59C321,-313.07 321,-266.22 321,-234.74"/>
<polygon fill="#4b5563" stroke="#4b5563" points="323.45,-234.8 321,-227.8 318.55,-234.8 323.45,-234.8"/>
<text text-anchor="middle" x="345.02" y="-277.45" font-family="Georgia" font-size="8.00">présupposent</text>
</g>
</g>
</svg>