<svg xmlns="http://www.w3.org/2000/svg" xmlns:xlink="http://www.w3.org/1999/xlink" width="2080pt" height="1322pt" viewBox="0.00 0.00 2079.96 1321.56">
<g id="graph0" class="graph" transform="scale(1 1) rotate(0) translate(4 1317.56)">
<title>RenvoiSigne</title>
<polygon fill="#f8f9fa" stroke="none" points="-4,4 -4,-1317.56 2075.96,-1317.56 2075.96,4 -4,4"/>
<text text-anchor="middle" x="1035.98" y="-1298.76" font-family="Georgia" font-size="12.00">§17 - Renvoi et signe</text>
<text text-anchor="middle" x="1035.98" y="-1284.36" font-family="Georgia" font-size="12.00">(Structure ontologique vs indication ontique)</text>
<g id="clust5" class="cluster">
<title>cluster_institution</title>
<polygon fill="#f8f9fa" stroke="#7c3aed" stroke-dasharray="5,2" points="1148.91,-148.72 1148.91,-395.36 1370.91,-395.36 1370.91,-148.72 1148.91,-148.72"/>
<text text-anchor="middle" x="1259.91" y="-380.56" font-family="Georgia" font-size="12.00" fill="#7c3aed">INSTITUTION DU SIGNE</text>
</g>
<g id="clust6" class="cluster">
<title>cluster_naturel</title>
<polygon fill="#f8f9fa" stroke="#10b981" stroke-dasharray="5,2" points="1378.91,-8 1378.91,-267.36 1512.91,-267.36 1512.91,-8 1378.91,-8"/>
<text text-anchor="middle" x="1445.91" y="-252.56" font-family="Georgia" font-size="12.00" fill="#10b981">SIGNE NATUREL</text>
</g>
<!-- Verweisung -->
<g id="node1" class="node">
<title>Verweisung</title>
<polygon fill="#f59e0b" stroke="black" points="1845.04,-1158.96 1721.19,-1158.96 1682.91,-1276.76 1644.64,-1158.96 1520.79,-1158.96 1620.99,-1086.16 1582.71,-968.37 1682.91,-1041.17 1783.11,-968.37 1744.84,-1086.16 1845.04,-1158.96"/>
<text text-anchor="middle" x="1682.91" y="-1146.86" font-family="Georgia" font-size="9.00" fill="white">RENVOI</text>
<text text-anchor="middle" x="1682.91" y="-1136.06" font-family="Georgia" font-size="9.00" fill="white">(Verweisung)</text>
<text text-anchor="middle" x="1682.91" y="-1125.26" font-family="Georgia" font-size="9.00" fill="white">structure ontologique</text>
<text text-anchor="middle" x="1682.91" y="-1114.46" font-family="Georgia" font-size="9.00" fill="white">de l'utilisabilité</text>
<text text-anchor="middle" x="1682.91" y="-1103.66" font-family="Georgia" font-size="9.00" fill="white">constitutif de</text>
<text text-anchor="middle" x="1682.91" y="-1092.86" font-family="Georgia" font-size="9.00" fill="white">la mondéité</text>
</g>
<!-- Verweisung&#45;&gt;Verweisung -->
<g id="edge24" class="edge">
<title>Verweisung-&gt;Verweisung</title>
<path fill="none" stroke="#f59e0b" stroke-dasharray="5,2" d="M1834.36,-1150.79C1851.75,-1145.54 1863.04,-1136.13 1863.04,-1122.56 1863.04,-1094.34 1814.2,-1084.12 1763.24,-1091.9"/>
<polygon fill="#f59e0b" stroke="#f59e0b" points="1763.03,-1089.45 1756.54,-1093.04 1763.85,-1094.28 1763.03,-1089.45"/>
<text text-anchor="middle" x="1888.3" y="-1129.76" font-family="Georgia" font-size="8.00">constituant de</text>
<text text-anchor="middle" x="1888.3" y="-1120.16" font-family="Georgia" font-size="8.00">la mondéité</text>
<text text-anchor="middle" x="1888.3" y="-1110.56" font-family="Georgia" font-size="8.00">en général</text>
</g>
<!-- Zeigen -->
<g id="node2" class="node">
<title>Zeigen</title>
<polygon fill="#3b82f6" stroke="black" points="1563.73,-872.15 1520.82,-922.77 1435.01,-922.77 1392.1,-872.15 1435.01,-821.52 1520.82,-821.52 1563.73,-872.15"/>
<text text-anchor="middle" x="1477.91" y="-891.05" font-family="Georgia" font-size="9.00" fill="white">MONTRER</text>
<text text-anchor="middle" x="1477.91" y="-880.25" font-family="Georgia" font-size="9.00" fill="white">(Zeigen)</text>
<text text-anchor="middle" x="1477.91" y="-869.45" font-family="Georgia" font-size="9.00" fill="white">genre de renvoi</text>
<text text-anchor="middle" x="1477.91" y="-858.65" font-family="Georgia" font-size="9.00" fill="white">concrétisation ontique</text>
<text text-anchor="middle" x="1477.91" y="-847.85" font-family="Georgia" font-size="9.00" fill="white">du pour-quoi</text>
</g>
<!-- Verweisung&#45;&gt;Zeigen -->
<g id="edge1" class="edge">
<title>Verweisung-&gt;Zeigen</title>
<path fill="none" stroke="#3b82f6" d="M1598.94,-1019.81C1573.45,-988.92 1546.38,-956.12 1524.32,-929.38"/>
<polygon fill="#3b82f6" stroke="#3b82f6" points="1526.42,-928.08 1520.08,-924.24 1522.64,-931.2 1526.42,-928.08"/>
<text text-anchor="middle" x="1553.59" y="-943.17" font-family="Georgia" font-size="8.00">genre de</text>
</g>
<!-- Dienlichkeit -->
<g id="node3" class="node">
<title>Dienlichkeit</title>
<polygon fill="#1e40af" stroke="black" points="1730.07,-872.15 1692.99,-922.77 1618.84,-922.77 1581.76,-872.15 1618.84,-821.52 1692.99,-821.52 1730.07,-872.15"/>
<text text-anchor="middle" x="1655.91" y="-891.05" font-family="Georgia" font-size="9.00" fill="white">USTENSILITÉ</text>
<text text-anchor="middle" x="1655.91" y="-880.25" font-family="Georgia" font-size="9.00" fill="white">(Dienlichkeit)</text>
<text text-anchor="middle" x="1655.91" y="-869.45" font-family="Georgia" font-size="9.00" fill="white">renvoi ontologique</text>
<text text-anchor="middle" x="1655.91" y="-858.65" font-family="Georgia" font-size="9.00" fill="white">'fait pour'</text>
<text text-anchor="middle" x="1655.91" y="-847.85" font-family="Georgia" font-size="9.00" fill="white">structure d'être</text>
</g>
<!-- Verweisung&#45;&gt;Dienlichkeit -->
<g id="edge2" class="edge">
<title>Verweisung-&gt;Dienlichkeit</title>
<path fill="none" stroke="#1e40af" d="M1673.36,-1033.63C1669.67,-999.7 1665.55,-961.8 1662.24,-931.36"/>
<polygon fill="#1e40af" stroke="#1e40af" points="1664.69,-931.18 1661.49,-924.48 1659.81,-931.71 1664.69,-931.18"/>
<text text-anchor="middle" x="1680.01" y="-943.17" font-family="Georgia" font-size="8.00">structure</text>
</g>
<!-- Bezug -->
<g id="node4" class="node">
<title>Bezug</title>
<polygon fill="#1d4ed8" stroke="black" points="1925.42,-872.15 1881.17,-922.77 1792.66,-922.77 1748.41,-872.15 1792.66,-821.52 1881.17,-821.52 1925.42,-872.15"/>
<text text-anchor="middle" x="1836.91" y="-891.05" font-family="Georgia" font-size="9.00" fill="white">RELATION</text>
<text text-anchor="middle" x="1836.91" y="-880.25" font-family="Georgia" font-size="9.00" fill="white">(Bezug)</text>
<text text-anchor="middle" x="1836.91" y="-869.45" font-family="Georgia" font-size="9.00" fill="white">détermination formelle</text>
<text text-anchor="middle" x="1836.91" y="-858.65" font-family="Georgia" font-size="9.00" fill="white">ne dit rien</text>
<text text-anchor="middle" x="1836.91" y="-847.85" font-family="Georgia" font-size="9.00" fill="white">au fond</text>
</g>
<!-- Verweisung&#45;&gt;Bezug -->
<g id="edge3" class="edge">
<title>Verweisung-&gt;Bezug</title>
<path fill="none" stroke="#1d4ed8" d="M1774.28,-974.19C1783.93,-958.62 1793.27,-943.55 1801.66,-930.02"/>
<polygon fill="#1d4ed8" stroke="#1d4ed8" points="1803.55,-931.61 1805.16,-924.37 1799.39,-929.03 1803.55,-931.61"/>
<text text-anchor="middle" x="1809.07" y="-943.17" font-family="Georgia" font-size="8.00">≠ relation</text>
</g>
<!-- Voraussetzung -->
<g id="node24" class="node">
<title>Voraussetzung</title>
<polygon fill="#ec4899" stroke="black" points="2054.54,-903.15 1943.29,-903.15 1943.29,-841.15 2054.54,-841.15 2054.54,-903.15"/>
<text text-anchor="middle" x="1998.91" y="-891.05" font-family="Georgia" font-size="9.00" fill="white">PRÉSUPPOSITION</text>
<text text-anchor="middle" x="1998.91" y="-880.25" font-family="Georgia" font-size="9.00" fill="white">(Voraussetzung)</text>
<text text-anchor="middle" x="1998.91" y="-869.45" font-family="Georgia" font-size="9.00" fill="white">renvoi = présupposition</text>
<text text-anchor="middle" x="1998.91" y="-858.65" font-family="Georgia" font-size="9.00" fill="white">ontologique</text>
<text text-anchor="middle" x="1998.91" y="-847.85" font-family="Georgia" font-size="9.00" fill="white">de l'utilisable</text>
</g>
<!-- Verweisung&#45;&gt;Voraussetzung -->
<g id="edge23" class="edge">
<title>Verweisung-&gt;Voraussetzung</title>
<path fill="none" stroke="#ec4899" d="M1751.09,-1067.97C1812.34,-1019.82 1900.55,-950.48 1953.54,-908.81"/>
<polygon fill="#ec4899" stroke="#ec4899" points="1954.97,-910.81 1958.96,-904.56 1951.94,-906.96 1954.97,-910.81"/>
<text text-anchor="middle" x="1932.12" y="-943.17" font-family="Georgia" font-size="8.00">présupposition</text>
</g>
<!-- Zeichen -->
<g id="node5" class="node">
<title>Zeichen</title>
<polygon fill="#059669" stroke="black" points="1183.91,-775.92 1107.98,-713.92 1183.91,-651.92 1259.85,-713.92 1183.91,-775.92"/>
<text text-anchor="middle" x="1183.91" y="-732.82" font-family="Georgia" font-size="9.00" fill="white">SIGNE</text>
<text text-anchor="middle" x="1183.91" y="-722.02" font-family="Georgia" font-size="9.00" fill="white">(Zeichen)</text>
<text text-anchor="middle" x="1183.91" y="-711.22" font-family="Georgia" font-size="9.00" fill="white">util servant</text>
<text text-anchor="middle" x="1183.91" y="-700.42" font-family="Georgia" font-size="9.00" fill="white">à montrer</text>
<text text-anchor="middle" x="1183.91" y="-689.62" font-family="Georgia" font-size="9.00" fill="white">structure triple</text>
</g>
<!-- Zeigen&#45;&gt;Zeichen -->
<g id="edge4" class="edge">
<title>Zeigen-&gt;Zeichen</title>
<path fill="none" stroke="#059669" d="M1419.13,-839.91C1365.94,-811.65 1288.31,-770.4 1236.97,-743.12"/>
<polygon fill="#059669" stroke="#059669" points="1238.27,-741.03 1230.93,-739.91 1235.97,-745.36 1238.27,-741.03"/>
<text text-anchor="middle" x="1354.51" y="-796.32" font-family="Georgia" font-size="8.00">util</text>
</g>
<!-- OntischOntologisch -->
<g id="node23" class="node">
<title>OntischOntologisch</title>
<polygon fill="#f472b6" stroke="black" points="1649.51,-750.32 1534.31,-750.32 1534.31,-677.52 1649.51,-677.52 1649.51,-750.32"/>
<text text-anchor="middle" x="1591.91" y="-738.22" font-family="Georgia" font-size="9.00" fill="white">ONTIQUE ≠</text>
<text text-anchor="middle" x="1591.91" y="-727.42" font-family="Georgia" font-size="9.00" fill="white">ONTOLOGIQUE</text>
<text text-anchor="middle" x="1591.91" y="-716.62" font-family="Georgia" font-size="9.00" fill="white">signe = montrer</text>
<text text-anchor="middle" x="1591.91" y="-705.82" font-family="Georgia" font-size="9.00" fill="white">ontique</text>
<text text-anchor="middle" x="1591.91" y="-695.02" font-family="Georgia" font-size="9.00" fill="white">renvoi = structure</text>
<text text-anchor="middle" x="1591.91" y="-684.22" font-family="Georgia" font-size="9.00" fill="white">ontologique</text>
</g>
<!-- Zeigen&#45;&gt;OntischOntologisch -->
<g id="edge22" class="edge">
<title>Zeigen-&gt;OntischOntologisch</title>
<path fill="none" stroke="#f472b6" d="M1514.3,-821.29C1529.34,-800.68 1546.59,-777.04 1561,-757.29"/>
<polygon fill="#f472b6" stroke="#f472b6" points="1562.93,-758.79 1565.08,-751.7 1558.98,-755.91 1562.93,-758.79"/>
<text text-anchor="middle" x="1550.5" y="-796.32" font-family="Georgia" font-size="8.00">distinction</text>
</g>
<!-- FormelZeichen -->
<g id="node25" class="node">
<title>FormelZeichen</title>
<polygon fill="#ecfdf5" stroke="black" stroke-dasharray="5,2" points="1886.32,-755.72 1781.51,-755.72 1781.51,-672.12 1892.32,-672.12 1892.32,-749.72 1886.32,-755.72"/>
<polyline fill="none" stroke="black" stroke-dasharray="5,2" points="1886.32,-755.72 1886.32,-749.72"/>
<polyline fill="none" stroke="black" stroke-dasharray="5,2" points="1892.32,-749.72 1886.32,-749.72"/>
<text text-anchor="middle" x="1836.91" y="-743.62" font-family="Georgia" font-size="9.00" fill="#065f46">FORMULE :</text>
<text text-anchor="middle" x="1836.91" y="-732.82" font-family="Georgia" font-size="9.00" fill="#065f46">Tout renvoi est relation</text>
<text text-anchor="middle" x="1836.91" y="-722.02" font-family="Georgia" font-size="9.00" fill="#065f46">mais toute relation</text>
<text text-anchor="middle" x="1836.91" y="-711.22" font-family="Georgia" font-size="9.00" fill="#065f46">n'est pas renvoi</text>
<text text-anchor="middle" x="1836.91" y="-700.42" font-family="Georgia" font-size="9.00" fill="#065f46">Tout montrer est renvoi</text>
<text text-anchor="middle" x="1836.91" y="-689.62" font-family="Georgia" font-size="9.00" fill="#065f46">mais tout renvoi</text>
<text text-anchor="middle" x="1836.91" y="-678.82" font-family="Georgia" font-size="9.00" fill="#065f46">n'est pas montrer</text>
</g>
<!-- Bezug&#45;&gt;FormelZeichen -->
<!-- Pfeil -->
<g id="node6" class="node">
<title>Pfeil</title>
<polygon fill="#10b981" stroke="black" points="79.91,-580.64 0,-518.64 79.91,-456.64 159.83,-518.64 79.91,-580.64"/>
<text text-anchor="middle" x="79.91" y="-537.54" font-family="Georgia" font-size="9.00" fill="white">FLÈCHE</text>
<text text-anchor="middle" x="79.91" y="-526.74" font-family="Georgia" font-size="9.00" fill="white">(Pfeil)</text>
<text text-anchor="middle" x="79.91" y="-515.94" font-family="Georgia" font-size="9.00" fill="white">exemple : flèche</text>
<text text-anchor="middle" x="79.91" y="-505.14" font-family="Georgia" font-size="9.00" fill="white">rouge pivotante</text>
<text text-anchor="middle" x="79.91" y="-494.34" font-family="Georgia" font-size="9.00" fill="white">sur automobiles</text>
</g>
<!-- Zeichen&#45;&gt;Pfeil -->
<g id="edge5" class="edge">
<title>Zeichen-&gt;Pfeil</title>
<path fill="none" stroke="#10b981" d="M1112.72,-709.64C916.91,-699.91 373.77,-667.95 206.91,-606.32 176.83,-595.21 147.01,-575.44 123.84,-557.58"/>
<polygon fill="#10b981" stroke="#10b981" points="125.38,-555.68 118.36,-553.29 122.36,-559.54 125.38,-555.68"/>
<text text-anchor="middle" x="317.63" y="-626.72" font-family="Georgia" font-size="8.00">exemple</text>
</g>
<!-- ZeichenUtil -->
<g id="node7" class="node">
<title>ZeichenUtil</title>
<polygon fill="#34d399" stroke="black" points="1414.91,-765.12 1313.14,-713.92 1414.91,-662.72 1516.69,-713.92 1414.91,-765.12"/>
<text text-anchor="middle" x="1414.91" y="-727.42" font-family="Georgia" font-size="9.00" fill="#1f2937">UTIL SPÉCIFIQUE</text>
<text text-anchor="middle" x="1414.91" y="-716.62" font-family="Georgia" font-size="9.00" fill="#1f2937">'fait pour montrer'</text>
<text text-anchor="middle" x="1414.91" y="-705.82" font-family="Georgia" font-size="9.00" fill="#1f2937">mais montrer ≠</text>
<text text-anchor="middle" x="1414.91" y="-695.02" font-family="Georgia" font-size="9.00" fill="#1f2937">structure ontologique</text>
</g>
<!-- Zeichen&#45;&gt;ZeichenUtil -->
<g id="edge6" class="edge">
<title>Zeichen-&gt;ZeichenUtil</title>
<path fill="none" stroke="#34d399" d="M1260.51,-713.92C1274.48,-713.92 1289.3,-713.92 1304.02,-713.92"/>
<polygon fill="#34d399" stroke="#34d399" points="1303.67,-716.38 1310.67,-713.92 1303.67,-711.48 1303.67,-716.38"/>
<text text-anchor="middle" x="1286.49" y="-719.32" font-family="Georgia" font-size="8.00">spécifique</text>
</g>
<!-- Anzeige -->
<g id="node8" class="node">
<title>Anzeige</title>
<polygon fill="#f97316" stroke="black" points="612.91,-606.32 509.95,-474.8 715.88,-474.8 612.91,-606.32"/>
<text text-anchor="middle" x="612.91" y="-537.54" font-family="Georgia" font-size="9.00" fill="white">INDICE</text>
<text text-anchor="middle" x="612.91" y="-526.74" font-family="Georgia" font-size="9.00" fill="white">(Anzeige)</text>
<text text-anchor="middle" x="612.91" y="-515.94" font-family="Georgia" font-size="9.00" fill="white">montre 'ce qui</text>
<text text-anchor="middle" x="612.91" y="-505.14" font-family="Georgia" font-size="9.00" fill="white">va venir'</text>
<text text-anchor="middle" x="612.91" y="-494.34" font-family="Georgia" font-size="9.00" fill="white">attente</text>
</g>
<!-- Zeichen&#45;&gt;Anzeige -->
<g id="edge7" class="edge">
<title>Zeichen-&gt;Anzeige</title>
<path fill="none" stroke="#f97316" d="M1116.74,-706.44C1024.58,-695.55 855.53,-668.36 724.91,-606.32 701.17,-595.05 677.72,-578.07 658.47,-562.12"/>
<polygon fill="#f97316" stroke="#f97316" points="660.19,-560.37 653.26,-557.74 657.04,-564.12 660.19,-560.37"/>
<text text-anchor="middle" x="791.3" y="-626.72" font-family="Georgia" font-size="8.00">type</text>
</g>
<!-- Merkzeichen -->
<g id="node9" class="node">
<title>Merkzeichen</title>
<polygon fill="#ea580c" stroke="black" points="868.91,-591.05 733.9,-482.44 1003.93,-482.44 868.91,-591.05"/>
<text text-anchor="middle" x="868.91" y="-532.14" font-family="Georgia" font-size="9.00" fill="white">SIGNE DE RAPPEL</text>
<text text-anchor="middle" x="868.91" y="-521.34" font-family="Georgia" font-size="9.00" fill="white">(Merkzeichen)</text>
<text text-anchor="middle" x="868.91" y="-510.54" font-family="Georgia" font-size="9.00" fill="white">ce qui vient</text>
<text text-anchor="middle" x="868.91" y="-499.74" font-family="Georgia" font-size="9.00" fill="white">d'avoir lieu</text>
</g>
<!-- Zeichen&#45;&gt;Merkzeichen -->
<g id="edge8" class="edge">
<title>Zeichen-&gt;Merkzeichen</title>
<path fill="none" stroke="#ea580c" d="M1141.1,-686.66C1085.63,-652.62 988.69,-593.14 926.72,-555.11"/>
<polygon fill="#ea580c" stroke="#ea580c" points="928.25,-553.18 921,-551.61 925.69,-557.35 928.25,-553.18"/>
<text text-anchor="middle" x="1062.2" y="-626.72" font-family="Georgia" font-size="8.00">type</text>
</g>
<!-- Abzeichen -->
<g id="node10" class="node">
<title>Abzeichen</title>
<polygon fill="#c2410c" stroke="black" points="1128.91,-591.05 1022.14,-482.44 1235.69,-482.44 1128.91,-591.05"/>
<text text-anchor="middle" x="1128.91" y="-532.14" font-family="Georgia" font-size="9.00" fill="white">INSIGNE</text>
<text text-anchor="middle" x="1128.91" y="-521.34" font-family="Georgia" font-size="9.00" fill="white">(Abzeichen)</text>
<text text-anchor="middle" x="1128.91" y="-510.54" font-family="Georgia" font-size="9.00" fill="white">montre 'à quoi'</text>
<text text-anchor="middle" x="1128.91" y="-499.74" font-family="Georgia" font-size="9.00" fill="white">adhère chacun</text>
</g>
<!-- Zeichen&#45;&gt;Abzeichen -->
<g id="edge9" class="edge">
<title>Zeichen-&gt;Abzeichen</title>
<path fill="none" stroke="#c2410c" d="M1169.75,-663.15C1162.83,-638.82 1154.42,-609.27 1147.03,-583.32"/>
<polygon fill="#c2410c" stroke="#c2410c" points="1149.46,-582.9 1145.19,-576.84 1144.75,-584.25 1149.46,-582.9"/>
<text text-anchor="middle" x="1168.91" y="-626.72" font-family="Georgia" font-size="8.00">type</text>
</g>
<!-- Orientierung -->
<g id="node13" class="node">
<title>Orientierung</title>
<ellipse fill="#be185d" stroke="black" cx="1311.91" cy="-518.64" rx="57.96" ry="57.96"/>
<text text-anchor="middle" x="1311.91" y="-537.54" font-family="Georgia" font-size="9.00" fill="white">ORIENTATION</text>
<text text-anchor="middle" x="1311.91" y="-526.74" font-family="Georgia" font-size="9.00" fill="white">(Orientierung)</text>
<text text-anchor="middle" x="1311.91" y="-515.94" font-family="Georgia" font-size="9.00" fill="white">vue d'ensemble</text>
<text text-anchor="middle" x="1311.91" y="-505.14" font-family="Georgia" font-size="9.00" fill="white">de l'entourance</text>
<text text-anchor="middle" x="1311.91" y="-494.34" font-family="Georgia" font-size="9.00" fill="white">du monde ambiant</text>
</g>
<!-- Zeichen&#45;&gt;Orientierung -->
<g id="edge12" class="edge">
<title>Zeichen-&gt;Orientierung</title>
<path fill="none" stroke="#be185d" d="M1210.13,-673.35C1229.03,-644.8 1254.79,-605.91 1275.66,-574.39"/>
<polygon fill="#be185d" stroke="#be185d" points="1277.65,-575.82 1279.47,-568.63 1273.56,-573.12 1277.65,-575.82"/>
<text text-anchor="middle" x="1254.02" y="-626.72" font-family="Georgia" font-size="8.00">procure</text>
</g>
<!-- Primitiv -->
<g id="node19" class="node">
<title>Primitiv</title>
<polygon fill="#fef3c7" stroke="black" points="1482.31,-549.64 1387.51,-549.64 1387.51,-487.64 1488.31,-487.64 1488.31,-543.64 1482.31,-549.64"/>
<polyline fill="none" stroke="black" points="1482.31,-549.64 1482.31,-543.64"/>
<polyline fill="none" stroke="black" points="1488.31,-543.64 1482.31,-543.64"/>
<text text-anchor="middle" x="1437.91" y="-537.54" font-family="Georgia" font-size="9.00" fill="#92400e">MONDE PRIMITIF</text>
<text text-anchor="middle" x="1437.91" y="-526.74" font-family="Georgia" font-size="9.00" fill="#92400e">fétiche, sortilège</text>
<text text-anchor="middle" x="1437.91" y="-515.94" font-family="Georgia" font-size="9.00" fill="#92400e">signe coïncide</text>
<text text-anchor="middle" x="1437.91" y="-505.14" font-family="Georgia" font-size="9.00" fill="#92400e">avec montré</text>
<text text-anchor="middle" x="1437.91" y="-494.34" font-family="Georgia" font-size="9.00" fill="#92400e">non-libre</text>
</g>
<!-- Zeichen&#45;&gt;Primitiv -->
<g id="edge18" class="edge">
<title>Zeichen-&gt;Primitiv</title>
<path fill="none" stroke="#fef3c7" d="M1230.09,-689.14C1283.8,-661.25 1366.7,-617.41 1378.91,-606.32 1394.37,-592.31 1407.81,-573.46 1417.95,-556.93"/>
<polygon fill="#fef3c7" stroke="#fef3c7" points="1419.82,-558.57 1421.31,-551.3 1415.61,-556.05 1419.82,-558.57"/>
<text text-anchor="middle" x="1372.03" y="-626.72" font-family="Georgia" font-size="8.00">usage primitif</text>
</g>
<!-- DreiRel -->
<g id="node21" class="node">
<title>DreiRel</title>
<polygon fill="#9ca3af" stroke="black" points="1621.51,-560.44 1506.31,-560.44 1506.31,-476.84 1621.51,-476.84 1621.51,-560.44"/>
<text text-anchor="middle" x="1563.91" y="-548.34" font-family="Georgia" font-size="9.00" fill="white">TRIPLE RELATION</text>
<text text-anchor="middle" x="1563.91" y="-537.54" font-family="Georgia" font-size="9.00" fill="white">1. Montrer repose</text>
<text text-anchor="middle" x="1563.91" y="-526.74" font-family="Georgia" font-size="9.00" fill="white">sur fait-pour</text>
<text text-anchor="middle" x="1563.91" y="-515.94" font-family="Georgia" font-size="9.00" fill="white">2. Signe relève</text>
<text text-anchor="middle" x="1563.91" y="-505.14" font-family="Georgia" font-size="9.00" fill="white">d'utillerie</text>
<text text-anchor="middle" x="1563.91" y="-494.34" font-family="Georgia" font-size="9.00" fill="white">3. Rend accessible</text>
<text text-anchor="middle" x="1563.91" y="-483.54" font-family="Georgia" font-size="9.00" fill="white">monde ambiant</text>
</g>
<!-- Zeichen&#45;&gt;DreiRel -->
<g id="edge20" class="edge">
<title>Zeichen-&gt;DreiRel</title>
<path fill="none" stroke="#9ca3af" d="M1227.32,-687.04C1249.56,-674.78 1277.47,-660.89 1303.91,-651.92 1387.39,-623.62 1423.99,-655.83 1496.91,-606.32 1511.93,-596.13 1525.05,-581.5 1535.62,-567.16"/>
<polygon fill="#9ca3af" stroke="#9ca3af" points="1537.34,-568.96 1539.41,-561.83 1533.35,-566.11 1537.34,-568.96"/>
<text text-anchor="middle" x="1488.68" y="-626.72" font-family="Georgia" font-size="8.00">relation triple</text>
</g>
<!-- Raumlich -->
<g id="node11" class="node">
<title>Raumlich</title>
<ellipse fill="#ec4899" stroke="black" cx="273.91" cy="-518.64" rx="58.5" ry="58.5"/>
<text text-anchor="middle" x="273.91" y="-537.54" font-family="Georgia" font-size="9.00" fill="white">ÊTRE-AU-MONDE</text>
<text text-anchor="middle" x="273.91" y="-526.74" font-family="Georgia" font-size="9.00" fill="white">SPATIAL</text>
<text text-anchor="middle" x="273.91" y="-515.94" font-family="Georgia" font-size="9.00" fill="white">aiguillé dans</text>
<text text-anchor="middle" x="273.91" y="-505.14" font-family="Georgia" font-size="9.00" fill="white">direction</text>
<text text-anchor="middle" x="273.91" y="-494.34" font-family="Georgia" font-size="9.00" fill="white">en route</text>
</g>
<!-- Pfeil&#45;&gt;Raumlich -->
<g id="edge10" class="edge">
<title>Pfeil-&gt;Raumlich</title>
<path fill="none" stroke="#ec4899" d="M160.5,-518.64C175.96,-518.64 191.99,-518.64 206.97,-518.64"/>
<polygon fill="#ec4899" stroke="#ec4899" points="206.65,-521.09 213.65,-518.64 206.65,-516.19 206.65,-521.09"/>
<text text-anchor="middle" x="187.62" y="-524.04" font-family="Georgia" font-size="8.00">s'adresse à</text>
</g>
<!-- Kontingent -->
<g id="node26" class="node">
<title>Kontingent</title>
<polygon fill="#fecaca" stroke="black" points="1768.64,-555.04 1639.19,-555.04 1639.19,-482.24 1774.64,-482.24 1774.64,-549.04 1768.64,-555.04"/>
<polyline fill="none" stroke="black" points="1768.64,-555.04 1768.64,-549.04"/>
<polyline fill="none" stroke="black" points="1774.64,-549.04 1768.64,-549.04"/>
<text text-anchor="middle" x="1706.91" y="-542.94" font-family="Georgia" font-size="9.00" fill="#7f1d1d">CARACTÈRE CONTINGENT :</text>
<text text-anchor="middle" x="1706.91" y="-532.14" font-family="Georgia" font-size="9.00" fill="#7f1d1d">Que pour-quoi de</text>
<text text-anchor="middle" x="1706.91" y="-521.34" font-family="Georgia" font-size="9.00" fill="#7f1d1d">l'ustensilité se</text>
<text text-anchor="middle" x="1706.91" y="-510.54" font-family="Georgia" font-size="9.00" fill="#7f1d1d">concrétise en montrer</text>
<text text-anchor="middle" x="1706.91" y="-499.74" font-family="Georgia" font-size="9.00" fill="#7f1d1d">est contingent pour</text>
<text text-anchor="middle" x="1706.91" y="-488.94" font-family="Georgia" font-size="9.00" fill="#7f1d1d">constitution de l'util</text>
</g>
<!-- ZeichenUtil&#45;&gt;Kontingent -->
<!-- Ausweichen -->
<g id="node12" class="node">
<title>Ausweichen</title>
<ellipse fill="#db2777" stroke="black" cx="434.91" cy="-518.64" rx="57.21" ry="57.21"/>
<text text-anchor="middle" x="434.91" y="-537.54" font-family="Georgia" font-size="9.00" fill="white">SE GARER</text>
<text text-anchor="middle" x="434.91" y="-526.74" font-family="Georgia" font-size="9.00" fill="white">(Ausweichen)</text>
<text text-anchor="middle" x="434.91" y="-515.94" font-family="Georgia" font-size="9.00" fill="white">prendre direction</text>
<text text-anchor="middle" x="434.91" y="-505.14" font-family="Georgia" font-size="9.00" fill="white">stationner = cas</text>
<text text-anchor="middle" x="434.91" y="-494.34" font-family="Georgia" font-size="9.00" fill="white">limite</text>
</g>
<!-- Raumlich&#45;&gt;Ausweichen -->
<g id="edge11" class="edge">
<title>Raumlich-&gt;Ausweichen</title>
<path fill="none" stroke="#db2777" d="M332.49,-518.64C344.4,-518.64 357,-518.64 369.14,-518.64"/>
<polygon fill="#db2777" stroke="#db2777" points="368.94,-521.09 375.94,-518.64 368.94,-516.19 368.94,-521.09"/>
<text text-anchor="middle" x="355.06" y="-524.04" font-family="Georgia" font-size="8.00">se garer</text>
</g>
<!-- Zeichenstiftung -->
<g id="node14" class="node">
<title>Zeichenstiftung</title>
<polygon fill="#7c3aed" stroke="black" points="1362.91,-364.96 1254.91,-364.96 1254.91,-302.96 1362.91,-302.96 1362.91,-364.96"/>
<text text-anchor="middle" x="1308.91" y="-352.86" font-family="Georgia" font-size="9.00" fill="white">INSTITUTION</text>
<text text-anchor="middle" x="1308.91" y="-342.06" font-family="Georgia" font-size="9.00" fill="white">DU SIGNE</text>
<text text-anchor="middle" x="1308.91" y="-331.26" font-family="Georgia" font-size="9.00" fill="white">(Zeichenstiftung)</text>
<text text-anchor="middle" x="1308.91" y="-320.46" font-family="Georgia" font-size="9.00" fill="white">besoin permanent</text>
<text text-anchor="middle" x="1308.91" y="-309.66" font-family="Georgia" font-size="9.00" fill="white">d'orientation</text>
</g>
<!-- Orientierung&#45;&gt;Zeichenstiftung -->
<g id="edge13" class="edge">
<title>Orientierung-&gt;Zeichenstiftung</title>
<path fill="none" stroke="#7c3aed" d="M1310.97,-460.34C1310.51,-432.05 1309.96,-398.66 1309.55,-373.46"/>
<polygon fill="#7c3aed" stroke="#7c3aed" points="1312,-373.72 1309.44,-366.76 1307.1,-373.8 1312,-373.72"/>
<text text-anchor="middle" x="1321.74" y="-405.76" font-family="Georgia" font-size="8.00">besoin</text>
</g>
<!-- Auffallig -->
<g id="node15" class="node">
<title>Auffallig</title>
<polygon fill="#5b21b6" stroke="black" points="1250.71,-224.12 1157.11,-224.12 1157.11,-162.12 1250.71,-162.12 1250.71,-224.12"/>
<text text-anchor="middle" x="1203.91" y="-212.02" font-family="Georgia" font-size="9.00" fill="white">RENDRE</text>
<text text-anchor="middle" x="1203.91" y="-201.22" font-family="Georgia" font-size="9.00" fill="white">SURPRENANT</text>
<text text-anchor="middle" x="1203.91" y="-190.42" font-family="Georgia" font-size="9.00" fill="white">(auffällig)</text>
<text text-anchor="middle" x="1203.91" y="-179.62" font-family="Georgia" font-size="9.00" fill="white">'charge' de</text>
<text text-anchor="middle" x="1203.91" y="-168.82" font-family="Georgia" font-size="9.00" fill="white">faire remarquer</text>
</g>
<!-- Zeichenstiftung&#45;&gt;Auffallig -->
<g id="edge14" class="edge">
<title>Zeichenstiftung-&gt;Auffallig</title>
<path fill="none" stroke="#5b21b6" d="M1285.87,-302.49C1270.01,-281.51 1248.83,-253.52 1231.98,-231.24"/>
<polygon fill="#5b21b6" stroke="#5b21b6" points="1233.99,-229.83 1227.82,-225.73 1230.08,-232.79 1233.99,-229.83"/>
<text text-anchor="middle" x="1283.76" y="-277.76" font-family="Georgia" font-size="8.00">rendre</text>
</g>
<!-- Knoten -->
<g id="node16" class="node">
<title>Knoten</title>
<polygon fill="#4c1d95" stroke="black" points="1362.71,-229.52 1269.11,-229.52 1269.11,-156.72 1362.71,-156.72 1362.71,-229.52"/>
<text text-anchor="middle" x="1315.91" y="-217.42" font-family="Georgia" font-size="9.00" fill="white">NŒUD AU</text>
<text text-anchor="middle" x="1315.91" y="-206.62" font-family="Georgia" font-size="9.00" fill="white">MOUCHOIR</text>
<text text-anchor="middle" x="1315.91" y="-195.82" font-family="Georgia" font-size="9.00" fill="white">(Knoten)</text>
<text text-anchor="middle" x="1315.91" y="-185.02" font-family="Georgia" font-size="9.00" fill="white">pense-bête</text>
<text text-anchor="middle" x="1315.91" y="-174.22" font-family="Georgia" font-size="9.00" fill="white">peut devenir</text>
<text text-anchor="middle" x="1315.91" y="-163.42" font-family="Georgia" font-size="9.00" fill="white">inaccessible</text>
</g>
<!-- Zeichenstiftung&#45;&gt;Knoten -->
<g id="edge15" class="edge">
<title>Zeichenstiftung-&gt;Knoten</title>
<path fill="none" stroke="#4c1d95" d="M1310.45,-302.49C1311.4,-283.69 1312.63,-259.25 1313.68,-238.34"/>
<polygon fill="#4c1d95" stroke="#4c1d95" points="1316.13,-238.55 1314.03,-231.44 1311.23,-238.3 1316.13,-238.55"/>
<text text-anchor="middle" x="1326.56" y="-277.76" font-family="Georgia" font-size="8.00">exemple</text>
</g>
<!-- Sudwind -->
<g id="node17" class="node">
<title>Sudwind</title>
<ellipse fill="#10b981" stroke="black" cx="1442.91" cy="-193.12" rx="54.33" ry="43.84"/>
<text text-anchor="middle" x="1442.91" y="-212.02" font-family="Georgia" font-size="9.00" fill="white">VENT DU SUD</text>
<text text-anchor="middle" x="1442.91" y="-201.22" font-family="Georgia" font-size="9.00" fill="white">(Südwind)</text>
<text text-anchor="middle" x="1442.91" y="-190.42" font-family="Georgia" font-size="9.00" fill="white">signe de pluie</text>
<text text-anchor="middle" x="1442.91" y="-179.62" font-family="Georgia" font-size="9.00" fill="white">dévoilé par</text>
<text text-anchor="middle" x="1442.91" y="-168.82" font-family="Georgia" font-size="9.00" fill="white">discernation</text>
</g>
<!-- Zeichenstiftung&#45;&gt;Sudwind -->
<g id="edge16" class="edge">
<title>Zeichenstiftung-&gt;Sudwind</title>
<path fill="none" stroke="#10b981" d="M1340.06,-302.51C1351.16,-291.53 1363.69,-278.98 1374.91,-267.36 1384.89,-257.04 1395.53,-245.73 1405.35,-235.16"/>
<polygon fill="#10b981" stroke="#10b981" points="1407.04,-236.95 1410,-230.15 1403.44,-233.62 1407.04,-236.95"/>
<text text-anchor="middle" x="1387.42" y="-277.76" font-family="Georgia" font-size="8.00">peut utiliser</text>
</g>
<!-- Unauffallig -->
<g id="node29" class="node">
<title>Unauffallig</title>
<polygon fill="#fbbf24" stroke="black" points="1244.8,-96.24 1157.03,-96.24 1157.03,-23.44 1250.8,-23.44 1250.8,-90.24 1244.8,-96.24"/>
<polyline fill="none" stroke="black" points="1244.8,-96.24 1244.8,-90.24"/>
<polyline fill="none" stroke="black" points="1250.8,-90.24 1244.8,-90.24"/>
<text text-anchor="middle" x="1203.91" y="-84.14" font-family="Georgia" font-size="9.00" fill="#92400e">INSURPRENANCE</text>
<text text-anchor="middle" x="1203.91" y="-73.34" font-family="Georgia" font-size="9.00" fill="#92400e">(Unauffälligkeit)</text>
<text text-anchor="middle" x="1203.91" y="-62.54" font-family="Georgia" font-size="9.00" fill="#92400e">signe emprunte</text>
<text text-anchor="middle" x="1203.91" y="-51.74" font-family="Georgia" font-size="9.00" fill="#92400e">surprenance à</text>
<text text-anchor="middle" x="1203.91" y="-40.94" font-family="Georgia" font-size="9.00" fill="#92400e">l'insurprenance</text>
<text text-anchor="middle" x="1203.91" y="-30.14" font-family="Georgia" font-size="9.00" fill="#92400e">constitutive</text>
</g>
<!-- Auffallig&#45;&gt;Unauffallig -->
<!-- NichtDing -->
<g id="node18" class="node">
<title>NichtDing</title>
<ellipse fill="#34d399" stroke="black" cx="1445.91" cy="-59.84" rx="59.28" ry="43.84"/>
<text text-anchor="middle" x="1445.91" y="-78.74" font-family="Georgia" font-size="9.00" fill="#1f2937">≠ CHOSE</text>
<text text-anchor="middle" x="1445.91" y="-67.94" font-family="Georgia" font-size="9.00" fill="#1f2937">PUIS SIGNE</text>
<text text-anchor="middle" x="1445.91" y="-57.14" font-family="Georgia" font-size="9.00" fill="#1f2937">dévoilé d'abord</text>
<text text-anchor="middle" x="1445.91" y="-46.34" font-family="Georgia" font-size="9.00" fill="#1f2937">comme utilisable</text>
<text text-anchor="middle" x="1445.91" y="-35.54" font-family="Georgia" font-size="9.00" fill="#1f2937">non entendu</text>
</g>
<!-- Sudwind&#45;&gt;NichtDing -->
<g id="edge17" class="edge">
<title>Sudwind-&gt;NichtDing</title>
<path fill="none" stroke="#34d399" d="M1443.9,-149.14C1444.17,-137.35 1444.46,-124.45 1444.74,-112.24"/>
<polygon fill="#34d399" stroke="#34d399" points="1447.18,-112.49 1444.89,-105.44 1442.29,-112.38 1447.18,-112.49"/>
<text text-anchor="middle" x="1458.33" y="-124.08" font-family="Georgia" font-size="8.00">≠ chose</text>
</g>
<!-- Zusammenfall -->
<g id="node20" class="node">
<title>Zusammenfall</title>
<polygon fill="#fbbf24" stroke="black" points="1482.31,-364.96 1387.51,-364.96 1387.51,-302.96 1488.31,-302.96 1488.31,-358.96 1482.31,-364.96"/>
<polyline fill="none" stroke="black" points="1482.31,-364.96 1482.31,-358.96"/>
<polyline fill="none" stroke="black" points="1488.31,-358.96 1482.31,-358.96"/>
<text text-anchor="middle" x="1437.91" y="-352.86" font-family="Georgia" font-size="9.00" fill="#92400e">COÏNCIDENCE</text>
<text text-anchor="middle" x="1437.91" y="-342.06" font-family="Georgia" font-size="9.00" fill="#92400e">≠ objectivation</text>
<text text-anchor="middle" x="1437.91" y="-331.26" font-family="Georgia" font-size="9.00" fill="#92400e">mais manque absolu</text>
<text text-anchor="middle" x="1437.91" y="-320.46" font-family="Georgia" font-size="9.00" fill="#92400e">d'objectivation</text>
<text text-anchor="middle" x="1437.91" y="-309.66" font-family="Georgia" font-size="9.00" fill="#92400e">attenance complète</text>
</g>
<!-- Primitiv&#45;&gt;Zusammenfall -->
<g id="edge19" class="edge">
<title>Primitiv-&gt;Zusammenfall</title>
<path fill="none" stroke="#fbbf24" d="M1437.91,-487.48C1437.91,-456.27 1437.91,-407.44 1437.91,-373.47"/>
<polygon fill="#fbbf24" stroke="#fbbf24" points="1440.36,-373.69 1437.91,-366.69 1435.46,-373.69 1440.36,-373.69"/>
<text text-anchor="middle" x="1459.51" y="-405.76" font-family="Georgia" font-size="8.00">coïncidence</text>
</g>
<!-- Indikator -->
<g id="node22" class="node">
<title>Indikator</title>
<polygon fill="#6b7280" stroke="black" points="1629.91,-364.96 1521.91,-364.96 1521.91,-302.96 1629.91,-302.96 1629.91,-364.96"/>
<text text-anchor="middle" x="1575.91" y="-352.86" font-family="Georgia" font-size="9.00" fill="white">INDICATEUR</text>
<text text-anchor="middle" x="1575.91" y="-342.06" font-family="Georgia" font-size="9.00" fill="white">ONTOLOGIQUE</text>
<text text-anchor="middle" x="1575.91" y="-331.26" font-family="Georgia" font-size="9.00" fill="white">signe = utilisable</text>
<text text-anchor="middle" x="1575.91" y="-320.46" font-family="Georgia" font-size="9.00" fill="white">ontique qui indique</text>
<text text-anchor="middle" x="1575.91" y="-309.66" font-family="Georgia" font-size="9.00" fill="white">structure ontologique</text>
</g>
<!-- DreiRel&#45;&gt;Indikator -->
<g id="edge21" class="edge">
<title>DreiRel-&gt;Indikator</title>
<path fill="none" stroke="#6b7280" d="M1566.61,-476.65C1568.63,-445.78 1571.39,-403.76 1573.38,-373.51"/>
<polygon fill="#6b7280" stroke="#6b7280" points="1575.81,-373.96 1573.82,-366.82 1570.92,-373.64 1575.81,-373.96"/>
<text text-anchor="middle" x="1589.43" y="-405.76" font-family="Georgia" font-size="8.00">indicateur</text>
</g>
<!-- Privileg -->
<g id="node28" class="node">
<title>Privileg</title>
<polygon fill="#f0fdf4" stroke="black" points="1628.78,-224.12 1521.05,-224.12 1521.05,-162.12 1634.78,-162.12 1634.78,-218.12 1628.78,-224.12"/>
<polyline fill="none" stroke="black" points="1628.78,-224.12 1628.78,-218.12"/>
<polyline fill="none" stroke="black" points="1634.78,-218.12 1628.78,-218.12"/>
<text text-anchor="middle" x="1577.91" y="-212.02" font-family="Georgia" font-size="9.00" fill="#15803d">PRIVILÈGE DU SIGNE :</text>
<text text-anchor="middle" x="1577.91" y="-201.22" font-family="Georgia" font-size="9.00" fill="#15803d">Application privilégiée</text>
<text text-anchor="middle" x="1577.91" y="-190.42" font-family="Georgia" font-size="9.00" fill="#15803d">dans commerce</text>
<text text-anchor="middle" x="1577.91" y="-179.62" font-family="Georgia" font-size="9.00" fill="#15803d">de préoccupation</text>
<text text-anchor="middle" x="1577.91" y="-168.82" font-family="Georgia" font-size="9.00" fill="#15803d">(base à éclaircir)</text>
</g>
<!-- Indikator&#45;&gt;Privileg -->
<!-- QuestionFond -->
<g id="node27" class="node">
<title>QuestionFond</title>
<polygon fill="#dbeafe" stroke="black" points="2065.96,-755.72 1925.87,-755.72 1925.87,-672.12 2071.96,-672.12 2071.96,-749.72 2065.96,-755.72"/>
<polyline fill="none" stroke="black" points="2065.96,-755.72 2065.96,-749.72"/>
<polyline fill="none" stroke="black" points="2071.96,-749.72 2065.96,-749.72"/>
<text text-anchor="middle" x="1998.91" y="-743.62" font-family="Georgia" font-size="9.00" fill="#1e40af">QUESTION FONDAMENTALE :</text>
<text text-anchor="middle" x="1998.91" y="-732.82" font-family="Georgia" font-size="9.00" fill="#1e40af">En quel sens renvoi</text>
<text text-anchor="middle" x="1998.91" y="-722.02" font-family="Georgia" font-size="9.00" fill="#1e40af">est-il 'présupposition'</text>
<text text-anchor="middle" x="1998.91" y="-711.22" font-family="Georgia" font-size="9.00" fill="#1e40af">ontologique de</text>
<text text-anchor="middle" x="1998.91" y="-700.42" font-family="Georgia" font-size="9.00" fill="#1e40af">l'utilisable et</text>
<text text-anchor="middle" x="1998.91" y="-689.62" font-family="Georgia" font-size="9.00" fill="#1e40af">constituant de</text>
<text text-anchor="middle" x="1998.91" y="-678.82" font-family="Georgia" font-size="9.00" fill="#1e40af">la mondéité?</text>
</g>
<!-- Voraussetzung&#45;&gt;QuestionFond -->
</g>
</svg>