<svg xmlns="http://www.w3.org/2000/svg" xmlns:xlink="http://www.w3.org/1999/xlink" width="2489pt" height="1309pt" viewBox="0.00 0.00 2488.79 1308.58">
<g id="graph0" class="graph" transform="scale(1 1) rotate(0) translate(4 1304.58)">
<title>VeriteEtEtre</title>
<text text-anchor="middle" x="1240.4" y="-1282.18" font-family="Arial" font-size="16.00">§44 - Dasein, Ouvertude et Vérité</text>
<text text-anchor="middle" x="1240.4" y="-1262.98" font-family="Arial" font-size="16.00">(Révolution de la conception traditionnelle de la vérité)</text>
<g id="clust1" class="cluster">
<title>cluster_traditionnel</title>
<polygon fill="none" stroke="#dc2626" stroke-width="2" points="392,-8 392,-638.27 812,-638.27 812,-8 392,-8"/>
<text text-anchor="middle" x="602" y="-619.87" font-family="Arial" font-size="16.00">CONCEPT TRADITIONNEL DE VÉRITÉ</text>
</g>
<g id="clust2" class="cluster">
<title>cluster_originaire</title>
<polygon fill="none" stroke="#059669" stroke-width="2" points="820,-167.15 820,-928.28 1350,-928.28 1350,-167.15 820,-167.15"/>
<text text-anchor="middle" x="1085" y="-909.88" font-family="Arial" font-size="16.00">CONCEPT ORIGINAIRE DE VÉRITÉ</text>
</g>
<g id="clust3" class="cluster">
<title>cluster_existential</title>
<polygon fill="none" stroke="#3b82f6" stroke-dasharray="5,2" points="1911,-204.75 1911,-883.56 2243,-883.56 2243,-204.75 1911,-204.75"/>
<text text-anchor="middle" x="2077" y="-865.16" font-family="Arial" font-size="16.00">STRUCTURES EXISTENTIALES</text>
</g>
<g id="clust4" class="cluster">
<title>cluster_derives</title>
<polygon fill="none" stroke="#7c3aed" stroke-dasharray="5,2" points="8,-369.72 8,-1246.18 384,-1246.18 384,-369.72 8,-369.72"/>
<text text-anchor="middle" x="196" y="-1227.78" font-family="Arial" font-size="16.00">PHÉNOMÈNES DÉRIVÉS</text>
</g>
<g id="clust5" class="cluster">
<title>cluster_verite_nonverite</title>
<polygon fill="none" stroke="#ea580c" stroke-dasharray="5,2" points="1358,-180.85 1358,-880.57 1719,-880.57 1719,-180.85 1358,-180.85"/>
<text text-anchor="middle" x="1538.5" y="-862.17" font-family="Arial" font-size="16.00">VÉRITÉ ET NON-VÉRITÉ</text>
</g>
<!-- VeriteTraditionnelle -->
<g id="node1" class="node">
<title>VeriteTraditionnelle</title>
<ellipse fill="#dc2626" stroke="black" cx="602" cy="-460.31" rx="115.56" ry="115.56"/>
<text text-anchor="middle" x="602" y="-471.11" font-family="Arial" font-size="12.00" fill="white">VÉRITÉ TRADITIONNELLE</text>
<text text-anchor="middle" x="602" y="-456.71" font-family="Arial" font-size="12.00" fill="white">Adaequatio intellectus et rei</text>
<text text-anchor="middle" x="602" y="-442.31" font-family="Arial" font-size="12.00" fill="white">(Accord sujet-objet)</text>
</g>
<!-- Adequatio -->
<g id="node2" class="node">
<title>Adequatio</title>
<ellipse fill="#ef4444" stroke="black" cx="538" cy="-233.55" rx="99.36" ry="53.17"/>
<text text-anchor="middle" x="538" y="-254.55" font-family="Arial" font-size="14.00" fill="white">ADÉQUATION</text>
<text text-anchor="middle" x="538" y="-237.75" font-family="Arial" font-size="14.00" fill="white">(Adaequatio)</text>
<text text-anchor="middle" x="538" y="-220.95" font-family="Arial" font-size="14.00" fill="white">Accord du jugement</text>
<text text-anchor="middle" x="538" y="-204.15" font-family="Arial" font-size="14.00" fill="white">avec son objet</text>
</g>
<!-- VeriteTraditionnelle&#45;&gt;Adequatio -->
<g id="edge1" class="edge">
<title>VeriteTraditionnelle-&gt;Adequatio</title>
<path fill="none" stroke="#dc2626" d="M570.56,-348.9C565.53,-331.23 560.48,-313.48 555.9,-297.42"/>
<polygon fill="#dc2626" stroke="#dc2626" points="559.34,-296.71 553.23,-288.05 552.61,-298.63 559.34,-296.71"/>
<text text-anchor="middle" x="591.74" y="-314.15" font-family="Times,serif" font-size="14.00">définit par</text>
</g>
<!-- Jugement -->
<g id="node3" class="node">
<title>Jugement</title>
<ellipse fill="#ef4444" stroke="black" cx="485" cy="-69.17" rx="84.99" ry="53.17"/>
<text text-anchor="middle" x="485" y="-90.17" font-family="Arial" font-size="14.00" fill="white">JUGEMENT</text>
<text text-anchor="middle" x="485" y="-73.37" font-family="Arial" font-size="14.00" fill="white">(Logos)</text>
<text text-anchor="middle" x="485" y="-56.57" font-family="Arial" font-size="14.00" fill="white">'Lieu' traditionnel</text>
<text text-anchor="middle" x="485" y="-39.77" font-family="Arial" font-size="14.00" fill="white">de la vérité</text>
</g>
<!-- Adequatio&#45;&gt;Jugement -->
<g id="edge2" class="edge">
<title>Adequatio-&gt;Jugement</title>
<path fill="none" stroke="#dc2626" d="M521.08,-180.73C516.09,-165.42 510.57,-148.5 505.38,-132.6"/>
<polygon fill="#dc2626" stroke="#dc2626" points="508.75,-131.64 502.32,-123.22 502.09,-133.81 508.75,-131.64"/>
<text text-anchor="middle" x="547.69" y="-144.55" font-family="Times,serif" font-size="14.00">situe dans le</text>
</g>
<!-- Accord -->
<g id="node4" class="node">
<title>Accord</title>
<ellipse fill="#ef4444" stroke="black" cx="696" cy="-69.17" rx="108.16" ry="53.17"/>
<text text-anchor="middle" x="696" y="-90.17" font-family="Arial" font-size="14.00" fill="white">ACCORD</text>
<text text-anchor="middle" x="696" y="-73.37" font-family="Arial" font-size="14.00" fill="white">(Homoiosis)</text>
<text text-anchor="middle" x="696" y="-56.57" font-family="Arial" font-size="14.00" fill="white">Relation formelle</text>
<text text-anchor="middle" x="696" y="-39.77" font-family="Arial" font-size="14.00" fill="white">entre intellectus et res</text>
</g>
<!-- Adequatio&#45;&gt;Accord -->
<g id="edge3" class="edge">
<title>Adequatio-&gt;Accord</title>
<path fill="none" stroke="#dc2626" d="M583.28,-186.02C601.63,-167.16 622.97,-145.22 642.12,-125.55"/>
<polygon fill="#dc2626" stroke="#dc2626" points="644.37,-128.25 648.84,-118.64 639.36,-123.37 644.37,-128.25"/>
<text text-anchor="middle" x="676.8" y="-144.55" font-family="Times,serif" font-size="14.00">comprend comme</text>
</g>
<!-- VeriteOriginaire -->
<g id="node5" class="node">
<title>VeriteOriginaire</title>
<ellipse fill="#059669" stroke="black" cx="1250" cy="-773.48" rx="92.4" ry="92.4"/>
<text text-anchor="middle" x="1250" y="-784.28" font-family="Arial" font-size="12.00" fill="white">VÉRITÉ ORIGINAIRE</text>
<text text-anchor="middle" x="1250" y="-769.88" font-family="Arial" font-size="12.00" fill="white">ALETHEIA</text>
<text text-anchor="middle" x="1250" y="-755.48" font-family="Arial" font-size="12.00" fill="white">(Être-dévoilé)</text>
</g>
<!-- VeriteOriginaire&#45;&gt;VeriteTraditionnelle -->
<g id="edge13" class="edge">
<title>VeriteOriginaire-&gt;VeriteTraditionnelle</title>
<path fill="none" stroke="#7c3aed" stroke-dasharray="5,2" d="M1159.09,-755.23C1068.35,-735.57 926.84,-698.17 816,-638.27 772.12,-614.56 728.76,-581.11 692.66,-549.67"/>
<polygon fill="#7c3aed" stroke="#7c3aed" points="695.07,-547.13 685.26,-543.15 690.45,-552.39 695.07,-547.13"/>
<text text-anchor="middle" x="898.45" y="-650.47" font-family="Times,serif" font-size="14.00">se dégrade en</text>
</g>
<!-- Aletheia -->
<g id="node8" class="node">
<title>Aletheia</title>
<polygon fill="#10b981" stroke="black" points="1049,-535.51 955.19,-460.31 1049,-385.11 1142.81,-460.31 1049,-535.51"/>
<text text-anchor="middle" x="1049" y="-481.31" font-family="Arial" font-size="14.00" fill="white">ALÉTHEIA</text>
<text text-anchor="middle" x="1049" y="-464.51" font-family="Arial" font-size="14.00" fill="white">(Α-λήθεια)</text>
<text text-anchor="middle" x="1049" y="-447.71" font-family="Arial" font-size="14.00" fill="white">Non-retrait</text>
<text text-anchor="middle" x="1049" y="-430.91" font-family="Arial" font-size="14.00" fill="white">Dévoilement</text>
</g>
<!-- VeriteOriginaire&#45;&gt;Aletheia -->
<g id="edge4" class="edge">
<title>VeriteOriginaire-&gt;Aletheia</title>
<path fill="none" stroke="#059669" stroke-width="2" d="M1161.28,-746.8C1120.23,-730.01 1075.28,-703.48 1051.1,-663.07 1028.42,-625.15 1027.58,-575.62 1032.56,-535.12"/>
<polygon fill="#059669" stroke="#059669" stroke-width="2" points="1035.79,-537.34 1033.69,-526.95 1028.85,-536.37 1035.79,-537.34"/>
<text text-anchor="middle" x="1055.05" y="-650.47" font-family="Times,serif" font-size="14.00">=</text>
</g>
<!-- Souci -->
<g id="node13" class="node">
<title>Souci</title>
<polygon fill="#3b82f6" stroke="black" points="2116.4,-773.48 2072.7,-821.16 1985.3,-821.16 1941.6,-773.48 1985.3,-725.79 2072.7,-725.79 2116.4,-773.48"/>
<text text-anchor="middle" x="2029" y="-786.08" font-family="Arial" font-size="14.00" fill="white">SOUCI</text>
<text text-anchor="middle" x="2029" y="-769.28" font-family="Arial" font-size="14.00" fill="white">(Sorge)</text>
<text text-anchor="middle" x="2029" y="-752.48" font-family="Arial" font-size="14.00" fill="white">Être du Dasein</text>
</g>
<!-- VeriteOriginaire&#45;&gt;Souci -->
<g id="edge21" class="edge">
<title>VeriteOriginaire-&gt;Souci</title>
<path fill="none" stroke="#3b82f6" d="M1291.86,-856.1C1307.94,-879.15 1328.64,-901.36 1354,-914.15 1427.22,-951.07 1642.9,-931.68 1723,-914.15 1810.65,-894.96 1903.17,-848.23 1963.23,-813.87"/>
<polygon fill="#3b82f6" stroke="#3b82f6" points="1964.74,-817.04 1971.64,-809.01 1961.23,-810.98 1964.74,-817.04"/>
<text text-anchor="middle" x="1654" y="-940.48" font-family="Times,serif" font-size="14.00">existential du</text>
</g>
<!-- NonVerite -->
<g id="node17" class="node">
<title>NonVerite</title>
<polygon fill="#f59e0b" stroke="black" points="1573.94,-436.47 1573.94,-484.15 1529.46,-517.87 1466.54,-517.87 1422.06,-484.15 1422.06,-436.47 1466.54,-402.75 1529.46,-402.75 1573.94,-436.47"/>
<text text-anchor="middle" x="1498" y="-481.31" font-family="Arial" font-size="14.00" fill="white">NON-VÉRITÉ</text>
<text text-anchor="middle" x="1498" y="-464.51" font-family="Arial" font-size="14.00" fill="white">(Unwahrheit)</text>
<text text-anchor="middle" x="1498" y="-447.71" font-family="Arial" font-size="14.00" fill="white">Retrait</text>
<text text-anchor="middle" x="1498" y="-430.91" font-family="Arial" font-size="14.00" fill="white">Occultation</text>
</g>
<!-- VeriteOriginaire&#45;&gt;NonVerite -->
<g id="edge17" class="edge">
<title>VeriteOriginaire-&gt;NonVerite</title>
<path fill="none" stroke="#ea580c" stroke-width="2" d="M1162.07,-743.75C1103.4,-720.21 1043.32,-684.62 1080.56,-646.27 1091.15,-635.37 1340.37,-645 1354,-638.27 1401.41,-614.87 1438.54,-567.75 1463.21,-528.02"/>
<polygon fill="#ea580c" stroke="#ea580c" stroke-width="2" points="1465.3,-531.32 1467.49,-520.95 1459.31,-527.69 1465.3,-531.32"/>
<text text-anchor="middle" x="1131.28" y="-650.47" font-family="Times,serif" font-size="14.00">co-originaire avec</text>
</g>
<!-- EtreEtVerite -->
<g id="node23" class="node">
<title>EtreEtVerite</title>
<ellipse fill="#dc2626" stroke="black" cx="1815" cy="-460.31" rx="88.32" ry="53.17"/>
<text text-anchor="middle" x="1815" y="-481.31" font-family="Arial" font-size="14.00" fill="white">ÊTRE ET VÉRITÉ</text>
<text text-anchor="middle" x="1815" y="-464.51" font-family="Arial" font-size="14.00" fill="white">Co-originaires</text>
<text text-anchor="middle" x="1815" y="-447.71" font-family="Arial" font-size="14.00" fill="white">'Il n'y a être que</text>
<text text-anchor="middle" x="1815" y="-430.91" font-family="Arial" font-size="14.00" fill="white">dans la vérité'</text>
</g>
<!-- VeriteOriginaire&#45;&gt;EtreEtVerite -->
<g id="edge27" class="edge">
<title>VeriteOriginaire-&gt;EtreEtVerite</title>
<path fill="none" stroke="#dc2626" stroke-width="2" d="M1198.02,-696.62C1191.83,-678.33 1191.82,-660.1 1205.44,-646.27 1225.61,-625.78 1698.54,-653.38 1723,-638.27 1763.48,-613.26 1787.01,-564.12 1800.12,-523.96"/>
<polygon fill="#dc2626" stroke="#dc2626" stroke-width="2" points="1802.95,-526.64 1802.57,-516.05 1796.27,-524.57 1802.95,-526.64"/>
<text text-anchor="middle" x="1250.72" y="-650.47" font-family="Times,serif" font-size="14.00">corrélation avec</text>
</g>
<!-- EtreDevoilant -->
<g id="node6" class="node">
<title>EtreDevoilant</title>
<polygon fill="#10b981" stroke="black" points="1208,-291.95 1073.77,-233.55 1208,-175.15 1342.23,-233.55 1208,-291.95"/>
<text text-anchor="middle" x="1208" y="-246.15" font-family="Arial" font-size="14.00" fill="white">ÊTRE-DÉVOILANT</text>
<text text-anchor="middle" x="1208" y="-229.35" font-family="Arial" font-size="14.00" fill="white">(Entdeckend-sein)</text>
<text text-anchor="middle" x="1208" y="-212.55" font-family="Arial" font-size="14.00" fill="white">Dasein dévoilant</text>
</g>
<!-- Ouvertude -->
<g id="node9" class="node">
<title>Ouvertude</title>
<polygon fill="#3b82f6" stroke="black" points="2184.89,-460.31 2118.94,-521.71 1987.06,-521.71 1921.11,-460.31 1987.06,-398.91 2118.94,-398.91 2184.89,-460.31"/>
<text text-anchor="middle" x="2053" y="-481.31" font-family="Arial" font-size="14.00" fill="white">OUVERTUDE</text>
<text text-anchor="middle" x="2053" y="-464.51" font-family="Arial" font-size="14.00" fill="white">(Erschlossenheit)</text>
<text text-anchor="middle" x="2053" y="-447.71" font-family="Arial" font-size="14.00" fill="white">Structure fondamentale</text>
<text text-anchor="middle" x="2053" y="-430.91" font-family="Arial" font-size="14.00" fill="white">du Dasein</text>
</g>
<!-- EtreDevoilant&#45;&gt;Ouvertude -->
<g id="edge12" class="edge">
<title>EtreDevoilant-&gt;Ouvertude</title>
<path fill="none" stroke="#059669" d="M1271.64,-264.78C1296.74,-275.31 1326.17,-285.97 1354,-291.95 1597.55,-344.28 1685.8,-240.41 1912,-344.75 1937.3,-356.42 1961.92,-373.67 1983.33,-391.27"/>
<polygon fill="#059669" stroke="#059669" points="1980.92,-393.82 1990.83,-397.58 1985.43,-388.46 1980.92,-393.82"/>
<text text-anchor="middle" x="1888.78" y="-314.15" font-family="Times,serif" font-size="14.00">repose sur</text>
</g>
<!-- EtreDevoile -->
<g id="node7" class="node">
<title>EtreDevoile</title>
<polygon fill="#10b981" stroke="black" points="942,-291.95 827.99,-233.55 942,-175.15 1056.01,-233.55 942,-291.95"/>
<text text-anchor="middle" x="942" y="-246.15" font-family="Arial" font-size="14.00" fill="white">ÊTRE-DÉVOILÉ</text>
<text text-anchor="middle" x="942" y="-229.35" font-family="Arial" font-size="14.00" fill="white">(Entdeckt-sein)</text>
<text text-anchor="middle" x="942" y="-212.55" font-family="Arial" font-size="14.00" fill="white">Étant découvert</text>
</g>
<!-- Aletheia&#45;&gt;EtreDevoilant -->
<g id="edge5" class="edge">
<title>Aletheia-&gt;EtreDevoilant</title>
<path fill="none" stroke="#059669" d="M1082.72,-411.64C1108.35,-375.41 1143.61,-325.57 1170.2,-287.99"/>
<polygon fill="#059669" stroke="#059669" points="1172.97,-290.13 1175.88,-279.95 1167.25,-286.09 1172.97,-290.13"/>
<text text-anchor="middle" x="1180.02" y="-314.15" font-family="Times,serif" font-size="14.00">comprend</text>
</g>
<!-- Aletheia&#45;&gt;EtreDevoile -->
<g id="edge6" class="edge">
<title>Aletheia-&gt;EtreDevoile</title>
<path fill="none" stroke="#059669" d="M1023.23,-405.19C1006.8,-370.67 985.54,-326.01 968.89,-291.04"/>
<polygon fill="#059669" stroke="#059669" points="972.21,-289.87 964.76,-282.35 965.89,-292.88 972.21,-289.87"/>
<text text-anchor="middle" x="1010.76" y="-314.15" font-family="Times,serif" font-size="14.00">comprend</text>
</g>
<!-- Ouvertude&#45;&gt;VeriteOriginaire -->
<g id="edge11" class="edge">
<title>Ouvertude-&gt;VeriteOriginaire</title>
<path fill="none" stroke="#059669" stroke-width="2" d="M2023.06,-522.03C1999.19,-563.05 1961.56,-613.98 1912,-638.27 1882.57,-652.7 1350.36,-629.63 1322.12,-646.27 1309,-654 1298.06,-665.11 1289,-677.56"/>
<polygon fill="#059669" stroke="#059669" stroke-width="2" points="1287.12,-674.08 1284.42,-684.32 1292.92,-678 1287.12,-674.08"/>
<text text-anchor="middle" x="1338.06" y="-650.47" font-family="Times,serif" font-size="14.00">fonde</text>
</g>
<!-- Disposibilite -->
<g id="node10" class="node">
<title>Disposibilite</title>
<polygon fill="#3b82f6" stroke="black" points="2123.01,-254.35 2008.99,-254.35 2008.99,-212.75 2123.01,-212.75 2123.01,-254.35"/>
<text text-anchor="middle" x="2066" y="-237.75" font-family="Arial" font-size="14.00" fill="white">DISPOSIBILITÉ</text>
<text text-anchor="middle" x="2066" y="-220.95" font-family="Arial" font-size="14.00" fill="white">(Befindlichkeit)</text>
</g>
<!-- Ouvertude&#45;&gt;Disposibilite -->
<g id="edge7" class="edge">
<title>Ouvertude-&gt;Disposibilite</title>
<path fill="none" stroke="#3b82f6" d="M2056.52,-398.49C2058.99,-355.69 2062.21,-300.16 2064.18,-265.96"/>
<polygon fill="#3b82f6" stroke="#3b82f6" points="2067.66,-266.5 2064.74,-256.32 2060.67,-266.1 2067.66,-266.5"/>
<text text-anchor="middle" x="2089.41" y="-314.15" font-family="Times,serif" font-size="14.00">comprend</text>
</g>
<!-- Entendre -->
<g id="node11" class="node">
<title>Entendre</title>
<polygon fill="#3b82f6" stroke="black" points="2234.5,-254.35 2141.5,-254.35 2141.5,-212.75 2234.5,-212.75 2234.5,-254.35"/>
<text text-anchor="middle" x="2188" y="-237.75" font-family="Arial" font-size="14.00" fill="white">ENTENDRE</text>
<text text-anchor="middle" x="2188" y="-220.95" font-family="Arial" font-size="14.00" fill="white">(Verstehen)</text>
</g>
<!-- Ouvertude&#45;&gt;Entendre -->
<g id="edge8" class="edge">
<title>Ouvertude-&gt;Entendre</title>
<path fill="none" stroke="#3b82f6" d="M2089.53,-398.49C2115.58,-355.13 2149.47,-298.7 2169.94,-264.62"/>
<polygon fill="#3b82f6" stroke="#3b82f6" points="2172.91,-266.48 2175.05,-256.1 2166.91,-262.87 2172.91,-266.48"/>
<text text-anchor="middle" x="2168.47" y="-314.15" font-family="Times,serif" font-size="14.00">comprend</text>
</g>
<!-- Parole -->
<g id="node12" class="node">
<title>Parole</title>
<polygon fill="#3b82f6" stroke="black" points="1991.4,-254.35 1918.6,-254.35 1918.6,-212.75 1991.4,-212.75 1991.4,-254.35"/>
<text text-anchor="middle" x="1955" y="-237.75" font-family="Arial" font-size="14.00" fill="white">PAROLE</text>
<text text-anchor="middle" x="1955" y="-220.95" font-family="Arial" font-size="14.00" fill="white">(Rede)</text>
</g>
<!-- Ouvertude&#45;&gt;Parole -->
<g id="edge9" class="edge">
<title>Ouvertude-&gt;Parole</title>
<path fill="none" stroke="#3b82f6" d="M2026.48,-398.49C2007.66,-355.32 1983.18,-299.19 1968.31,-265.06"/>
<polygon fill="#3b82f6" stroke="#3b82f6" points="1971.64,-263.96 1964.44,-256.19 1965.23,-266.76 1971.64,-263.96"/>
<text text-anchor="middle" x="2020.33" y="-314.15" font-family="Times,serif" font-size="14.00">comprend</text>
</g>
<!-- Souci&#45;&gt;Ouvertude -->
<g id="edge10" class="edge">
<title>Souci-&gt;Ouvertude</title>
<path fill="none" stroke="#3b82f6" stroke-width="2" d="M2032.62,-725.55C2036.56,-674.51 2042.9,-592.31 2047.46,-533.14"/>
<polygon fill="#3b82f6" stroke="#3b82f6" stroke-width="2" points="2050.81,-535.26 2048.09,-525.02 2043.83,-534.72 2050.81,-535.26"/>
<text text-anchor="middle" x="2054.09" y="-650.47" font-family="Times,serif" font-size="14.00">inclut</text>
</g>
<!-- PresuppositionVerite -->
<g id="node22" class="node">
<title>PresuppositionVerite</title>
<ellipse fill="#6366f1" stroke="black" cx="2183" cy="-1077.43" rx="98.22" ry="65.05"/>
<text text-anchor="middle" x="2183" y="-1106.83" font-family="Arial" font-size="14.00" fill="white">PRÉSUPPOSITION</text>
<text text-anchor="middle" x="2183" y="-1090.03" font-family="Arial" font-size="14.00" fill="white">DE VÉRITÉ</text>
<text text-anchor="middle" x="2183" y="-1073.23" font-family="Arial" font-size="14.00" fill="white">'Nous devons</text>
<text text-anchor="middle" x="2183" y="-1056.43" font-family="Arial" font-size="14.00" fill="white">présupposer</text>
<text text-anchor="middle" x="2183" y="-1039.63" font-family="Arial" font-size="14.00" fill="white">qu'il y a vérité'</text>
</g>
<!-- Souci&#45;&gt;PresuppositionVerite -->
<g id="edge26" class="edge">
<title>Souci-&gt;PresuppositionVerite</title>
<path fill="none" stroke="#6366f1" d="M2053.05,-821.63C2078.16,-870.87 2117.84,-948.67 2146.75,-1005.35"/>
<polygon fill="#6366f1" stroke="#6366f1" points="2143.49,-1006.66 2151.15,-1013.98 2149.72,-1003.48 2143.49,-1006.66"/>
<text text-anchor="middle" x="2156.93" y="-940.48" font-family="Times,serif" font-size="14.00">rend possible</text>
</g>
<!-- Enonce -->
<g id="node14" class="node">
<title>Enonce</title>
<polygon fill="#8b5cf6" stroke="black" points="196,-856.07 64.44,-732.18 327.56,-732.18 196,-856.07"/>
<text text-anchor="middle" x="196" y="-786.08" font-family="Arial" font-size="14.00" fill="white">ÉNONCÉ</text>
<text text-anchor="middle" x="196" y="-769.28" font-family="Arial" font-size="14.00" fill="white">(Aussage)</text>
<text text-anchor="middle" x="196" y="-752.48" font-family="Arial" font-size="14.00" fill="white">Mode dérivé</text>
</g>
<!-- EnTantQueApophantique -->
<g id="node16" class="node">
<title>EnTantQueApophantique</title>
<polygon fill="#8b5cf6" stroke="black" points="196,-542.9 16.05,-419.01 375.95,-419.01 196,-542.9"/>
<text text-anchor="middle" x="196" y="-472.91" font-family="Arial" font-size="14.00" fill="white">EN-TANT-QUE</text>
<text text-anchor="middle" x="196" y="-456.11" font-family="Arial" font-size="14.00" fill="white">APOPHANTIQUE</text>
<text text-anchor="middle" x="196" y="-439.31" font-family="Arial" font-size="14.00" fill="white">Structure dérivée</text>
</g>
<!-- Enonce&#45;&gt;EnTantQueApophantique -->
<g id="edge15" class="edge">
<title>Enonce-&gt;EnTantQueApophantique</title>
<path fill="none" stroke="#7c3aed" d="M196,-731.8C196,-687.07 196,-613.72 196,-554.68"/>
<polygon fill="#7c3aed" stroke="#7c3aed" points="199.5,-554.97 196,-544.97 192.5,-554.97 199.5,-554.97"/>
<text text-anchor="middle" x="220.49" y="-650.47" font-family="Times,serif" font-size="14.00">structure</text>
</g>
<!-- Explicitation -->
<g id="node15" class="node">
<title>Explicitation</title>
<polygon fill="#8b5cf6" stroke="black" points="196,-1183.78 24.85,-1024.25 367.15,-1024.25 196,-1183.78"/>
<text text-anchor="middle" x="196" y="-1098.43" font-family="Arial" font-size="14.00" fill="white">EXPLICITATION</text>
<text text-anchor="middle" x="196" y="-1081.63" font-family="Arial" font-size="14.00" fill="white">(Auslegung)</text>
<text text-anchor="middle" x="196" y="-1064.83" font-family="Arial" font-size="14.00" fill="white">En-tant-que</text>
<text text-anchor="middle" x="196" y="-1048.03" font-family="Arial" font-size="14.00" fill="white">herméneutique</text>
</g>
<!-- Explicitation&#45;&gt;Enonce -->
<g id="edge14" class="edge">
<title>Explicitation-&gt;Enonce</title>
<path fill="none" stroke="#7c3aed" d="M196,-1023.83C196,-980.95 196,-919.3 196,-868.04"/>
<polygon fill="#7c3aed" stroke="#7c3aed" points="199.5,-868.11 196,-858.11 192.5,-868.11 199.5,-868.11"/>
<text text-anchor="middle" x="216.6" y="-940.48" font-family="Times,serif" font-size="14.00">devient</text>
</g>
<!-- EnTantQueApophantique&#45;&gt;Adequatio -->
<g id="edge16" class="edge">
<title>EnTantQueApophantique-&gt;Adequatio</title>
<path fill="none" stroke="#7c3aed" d="M257.93,-418.61C316.71,-379.98 404.98,-321.97 466.67,-281.43"/>
<polygon fill="#7c3aed" stroke="#7c3aed" points="468.25,-284.58 474.69,-276.16 464.41,-278.73 468.25,-284.58"/>
<text text-anchor="middle" x="464.07" y="-314.15" font-family="Times,serif" font-size="14.00">apparaît comme</text>
</g>
<!-- Retrait -->
<g id="node18" class="node">
<title>Retrait</title>
<polygon fill="#f59e0b" stroke="black" points="1539.7,-215.03 1539.7,-252.06 1488.91,-278.25 1417.09,-278.25 1366.3,-252.06 1366.3,-215.03 1417.09,-188.85 1488.91,-188.85 1539.7,-215.03"/>
<text text-anchor="middle" x="1453" y="-246.15" font-family="Arial" font-size="14.00" fill="white">RETRAIT</text>
<text text-anchor="middle" x="1453" y="-229.35" font-family="Arial" font-size="14.00" fill="white">(Verborgenheit)</text>
<text text-anchor="middle" x="1453" y="-212.55" font-family="Arial" font-size="14.00" fill="white">Être-obturé</text>
</g>
<!-- NonVerite&#45;&gt;Retrait -->
<g id="edge18" class="edge">
<title>NonVerite-&gt;Retrait</title>
<path fill="none" stroke="#ea580c" d="M1486.59,-402.3C1479.69,-367.83 1470.93,-324.1 1464.09,-289.93"/>
<polygon fill="#ea580c" stroke="#ea580c" points="1467.54,-289.33 1462.14,-280.22 1460.67,-290.71 1467.54,-289.33"/>
<text text-anchor="middle" x="1498.14" y="-314.15" font-family="Times,serif" font-size="14.00">comprend</text>
</g>
<!-- Masquage -->
<g id="node19" class="node">
<title>Masquage</title>
<polygon fill="#f59e0b" stroke="black" points="1710.57,-215.03 1710.57,-252.06 1665.72,-278.25 1602.28,-278.25 1557.43,-252.06 1557.43,-215.03 1602.28,-188.85 1665.72,-188.85 1710.57,-215.03"/>
<text text-anchor="middle" x="1634" y="-246.15" font-family="Arial" font-size="14.00" fill="white">MASQUAGE</text>
<text text-anchor="middle" x="1634" y="-229.35" font-family="Arial" font-size="14.00" fill="white">(Verdeckung)</text>
<text text-anchor="middle" x="1634" y="-212.55" font-family="Arial" font-size="14.00" fill="white">Semblant</text>
</g>
<!-- NonVerite&#45;&gt;Masquage -->
<g id="edge19" class="edge">
<title>NonVerite-&gt;Masquage</title>
<path fill="none" stroke="#ea580c" d="M1531.44,-404.04C1552.79,-368.75 1580.34,-323.24 1601.5,-288.26"/>
<polygon fill="#ea580c" stroke="#ea580c" points="1604.33,-290.35 1606.51,-279.98 1598.34,-286.73 1604.33,-290.35"/>
<text text-anchor="middle" x="1614.12" y="-314.15" font-family="Times,serif" font-size="14.00">comprend</text>
</g>
<!-- Devalement -->
<g id="node20" class="node">
<title>Devalement</title>
<polygon fill="#f59e0b" stroke="black" points="1596.61,-754.96 1596.61,-791.99 1538.85,-818.17 1457.15,-818.17 1399.39,-791.99 1399.39,-754.96 1457.15,-728.78 1538.85,-728.78 1596.61,-754.96"/>
<text text-anchor="middle" x="1498" y="-786.08" font-family="Arial" font-size="14.00" fill="white">DÉVALEMENT</text>
<text text-anchor="middle" x="1498" y="-769.28" font-family="Arial" font-size="14.00" fill="white">(Verfall)</text>
<text text-anchor="middle" x="1498" y="-752.48" font-family="Arial" font-size="14.00" fill="white">Domination du On</text>
</g>
<!-- Devalement&#45;&gt;NonVerite -->
<g id="edge20" class="edge">
<title>Devalement-&gt;NonVerite</title>
<path fill="none" stroke="#ea580c" d="M1498,-728.55C1498,-676.77 1498,-590.12 1498,-529.57"/>
<polygon fill="#ea580c" stroke="#ea580c" points="1501.5,-529.72 1498,-519.72 1494.5,-529.72 1501.5,-529.72"/>
<text text-anchor="middle" x="1518.22" y="-650.47" font-family="Times,serif" font-size="14.00">produit</text>
</g>
<!-- Dasein -->
<g id="node21" class="node">
<title>Dasein</title>
<ellipse fill="#1e40af" stroke="black" cx="2338" cy="-773.48" rx="87.23" ry="87.23"/>
<text text-anchor="middle" x="2338" y="-794.48" font-family="Arial" font-size="14.00" fill="white">DASEIN</text>
<text text-anchor="middle" x="2338" y="-777.68" font-family="Arial" font-size="14.00" fill="white">Être-au-monde</text>
<text text-anchor="middle" x="2338" y="-760.88" font-family="Arial" font-size="14.00" fill="white">Dans la vérité ET</text>
<text text-anchor="middle" x="2338" y="-744.08" font-family="Arial" font-size="14.00" fill="white">la non-vérité</text>
</g>
<!-- Dasein&#45;&gt;VeriteOriginaire -->
<g id="edge23" class="edge">
<title>Dasein-&gt;VeriteOriginaire</title>
<path fill="none" stroke="#059669" stroke-width="2" d="M2304.32,-854.37C2290.26,-877.92 2271.4,-900.87 2247,-914.15 2159.84,-961.57 1442.59,-958.82 1354,-914.15 1332.01,-903.06 1313.52,-884.88 1298.51,-865.22"/>
<polygon fill="#059669" stroke="#059669" stroke-width="2" points="1302.37,-864.56 1293.65,-858.55 1296.71,-868.69 1302.37,-864.56"/>
<text text-anchor="middle" x="1898" y="-940.48" font-family="Times,serif" font-size="14.00">dans la</text>
</g>
<!-- Dasein&#45;&gt;Ouvertude -->
<g id="edge22" class="edge">
<title>Dasein-&gt;Ouvertude</title>
<path fill="none" stroke="#3b82f6" stroke-width="2" d="M2396.75,-708.59C2408.44,-688.33 2413.91,-666.06 2402,-646.27 2351.75,-562.77 2249.73,-514.98 2168.91,-488.98"/>
<polygon fill="#3b82f6" stroke="#3b82f6" stroke-width="2" points="2171.64,-486.17 2161.05,-486.51 2169.54,-492.84 2171.64,-486.17"/>
<text text-anchor="middle" x="2444.44" y="-650.47" font-family="Times,serif" font-size="14.00">constitué par</text>
</g>
<!-- Dasein&#45;&gt;NonVerite -->
<g id="edge24" class="edge">
<title>Dasein-&gt;NonVerite</title>
<path fill="none" stroke="#ea580c" stroke-width="2" d="M2289.89,-700.21C2271.64,-673.92 2253.65,-649.74 2247,-646.27 2220.94,-632.68 1745.65,-648.25 1718,-638.27 1651,-614.1 1589.18,-560.35 1548.24,-518.39"/>
<polygon fill="#ea580c" stroke="#ea580c" stroke-width="2" points="1551.89,-517.13 1542.44,-512.35 1546.84,-521.99 1551.89,-517.13"/>
<text text-anchor="middle" x="2281.98" y="-650.47" font-family="Times,serif" font-size="14.00">dans la</text>
</g>
<!-- Dasein&#45;&gt;EtreEtVerite -->
<g id="edge28" class="edge">
<title>Dasein-&gt;EtreEtVerite</title>
<path fill="none" stroke="#dc2626" d="M2333.96,-686.1C2329.24,-670.73 2321.47,-656.41 2309,-646.27 2291.66,-632.18 1925.98,-650.05 1907,-638.27 1866.58,-613.17 1843.05,-564.04 1829.92,-523.9"/>
<polygon fill="#dc2626" stroke="#dc2626" points="1833.32,-523.07 1827.01,-514.56 1826.64,-525.15 1833.32,-523.07"/>
<text text-anchor="middle" x="2357.4" y="-650.47" font-family="Times,serif" font-size="14.00">condition de</text>
</g>
<!-- PresuppositionVerite&#45;&gt;Dasein -->
<g id="edge25" class="edge">
<title>PresuppositionVerite-&gt;Dasein</title>
<path fill="none" stroke="#6366f1" d="M2214.37,-1015.32C2237.04,-971.15 2268,-910.84 2293.27,-861.62"/>
<polygon fill="#6366f1" stroke="#6366f1" points="2296.26,-863.45 2297.71,-852.96 2290.03,-860.26 2296.26,-863.45"/>
<text text-anchor="middle" x="2309.83" y="-940.48" font-family="Times,serif" font-size="14.00">fondée dans l'être du</text>
</g>
</g>
</svg>