<svg xmlns="http://www.w3.org/2000/svg" xmlns:xlink="http://www.w3.org/1999/xlink" width="1544pt" height="1552pt" viewBox="0.00 0.00 1544.44 1552.12">
<g id="graph0" class="graph" transform="scale(1 1) rotate(0) translate(4 1548.12)">
<title>ResExtensa</title>
<polygon fill="#f8f9fa" stroke="none" points="-4,4 -4,-1548.12 1540.44,-1548.12 1540.44,4 -4,4"/>
<text text-anchor="middle" x="768.22" y="-1529.32" font-family="Georgia" font-size="12.00">§19 - La détermination du 'monde' comme res extensa</text>
<text text-anchor="middle" x="768.22" y="-1514.92" font-family="Georgia" font-size="12.00">(Ontologie cartésienne de la substance corporelle)</text>
<g id="clust1" class="cluster">
<title>cluster_distinction</title>
<polygon fill="#f8f9fa" stroke="#7c3aed" stroke-dasharray="5,2" points="8,-1109.47 8,-1420.81 300,-1420.81 300,-1109.47 8,-1109.47"/>
<text text-anchor="middle" x="154" y="-1406.01" font-family="Georgia" font-size="12.00" fill="#7c3aed">DISTINCTION ONTOLOGIQUE FONDAMENTALE</text>
</g>
<!-- EgoCogito -->
<g id="node1" class="node">
<title>EgoCogito</title>
<polygon fill="#7c3aed" stroke="black" points="565.49,-1403.51 471.92,-1403.51 443,-1492.5 414.08,-1403.51 320.51,-1403.51 396.21,-1348.51 367.3,-1259.51 443,-1314.51 518.7,-1259.51 489.79,-1348.51 565.49,-1403.51"/>
<text text-anchor="middle" x="443" y="-1389.51" font-family="Georgia" font-size="9.00" fill="white">EGO COGITO</text>
<text text-anchor="middle" x="443" y="-1378.71" font-family="Georgia" font-size="9.00" fill="white">(res cogitans)</text>
<text text-anchor="middle" x="443" y="-1367.91" font-family="Georgia" font-size="9.00" fill="white">substance pensante</text>
<text text-anchor="middle" x="443" y="-1357.11" font-family="Georgia" font-size="9.00" fill="white">esprit</text>
</g>
<!-- Substantia -->
<g id="node3" class="node">
<title>Substantia</title>
<polygon fill="#f59e0b" stroke="black" points="522.96,-1148.47 475.48,-1199.09 380.52,-1199.09 333.04,-1148.47 380.52,-1097.84 475.48,-1097.84 522.96,-1148.47"/>
<text text-anchor="middle" x="428" y="-1167.37" font-family="Georgia" font-size="9.00" fill="white">SUBSTANTIA</text>
<text text-anchor="middle" x="428" y="-1156.57" font-family="Georgia" font-size="9.00" fill="white">(substance)</text>
<text text-anchor="middle" x="428" y="-1145.77" font-family="Georgia" font-size="9.00" fill="white">être d'un étant</text>
<text text-anchor="middle" x="428" y="-1134.97" font-family="Georgia" font-size="9.00" fill="white">ne-tenant-qu'à-lui-même</text>
<text text-anchor="middle" x="428" y="-1124.17" font-family="Georgia" font-size="9.00" fill="white">ambiguïté : être/étant</text>
</g>
<!-- EgoCogito&#45;&gt;Substantia -->
<g id="edge1" class="edge">
<title>EgoCogito-&gt;Substantia</title>
<path fill="none" stroke="#7c3aed" d="M438.74,-1310.98C436.58,-1278.46 433.97,-1239.25 431.87,-1207.6"/>
<polygon fill="#7c3aed" stroke="#7c3aed" points="434.32,-1207.64 431.42,-1200.82 429.44,-1207.97 434.32,-1207.64"/>
<text text-anchor="middle" x="453.79" y="-1219.49" font-family="Georgia" font-size="8.00">res cogitans</text>
</g>
<!-- NaturEsprit -->
<g id="node23" class="node">
<title>NaturEsprit</title>
<polygon fill="#9ca3af" stroke="black" points="270,-1179.47 162,-1179.47 162,-1117.47 270,-1117.47 270,-1179.47"/>
<text text-anchor="middle" x="216" y="-1167.37" font-family="Georgia" font-size="9.00" fill="white">NATURE/ESPRIT</text>
<text text-anchor="middle" x="216" y="-1156.57" font-family="Georgia" font-size="9.00" fill="white">distinction détermine</text>
<text text-anchor="middle" x="216" y="-1145.77" font-family="Georgia" font-size="9.00" fill="white">avenir ontologique</text>
<text text-anchor="middle" x="216" y="-1134.97" font-family="Georgia" font-size="9.00" fill="white">sans éclaircissement</text>
<text text-anchor="middle" x="216" y="-1124.17" font-family="Georgia" font-size="9.00" fill="white">soubassements</text>
</g>
<!-- EgoCogito&#45;&gt;NaturEsprit -->
<g id="edge24" class="edge">
<title>EgoCogito-&gt;NaturEsprit</title>
<path fill="none" stroke="#9ca3af" d="M421.94,-1298.82C410.77,-1270.09 394.38,-1239.06 371,-1217.09 354.7,-1201.77 344.62,-1207.76 324,-1199.09 309.02,-1192.79 293.03,-1185.66 278.08,-1178.82"/>
<polygon fill="#9ca3af" stroke="#9ca3af" points="279.12,-1176.61 271.74,-1175.91 277.07,-1181.06 279.12,-1176.61"/>
<text text-anchor="middle" x="396.55" y="-1219.49" font-family="Georgia" font-size="8.00">distinction</text>
</g>
<!-- ResCorporea -->
<g id="node2" class="node">
<title>ResCorporea</title>
<polygon fill="#dc2626" stroke="black" points="292.08,-1407.01 186.6,-1407.01 154,-1507.32 121.4,-1407.01 15.92,-1407.01 101.26,-1345.01 68.66,-1244.69 154,-1306.69 239.34,-1244.69 206.74,-1345.01 292.08,-1407.01"/>
<text text-anchor="middle" x="154" y="-1394.91" font-family="Georgia" font-size="9.00" fill="white">RES CORPOREA</text>
<text text-anchor="middle" x="154" y="-1384.11" font-family="Georgia" font-size="9.00" fill="white">(res extensa)</text>
<text text-anchor="middle" x="154" y="-1373.31" font-family="Georgia" font-size="9.00" fill="white">substance corporelle</text>
<text text-anchor="middle" x="154" y="-1362.51" font-family="Georgia" font-size="9.00" fill="white">matière</text>
<text text-anchor="middle" x="154" y="-1351.71" font-family="Georgia" font-size="9.00" fill="white">'monde'</text>
</g>
<!-- ResCorporea&#45;&gt;Substantia -->
<g id="edge2" class="edge">
<title>ResCorporea-&gt;Substantia</title>
<path fill="none" stroke="#dc2626" d="M218.67,-1309.52C249.23,-1279.94 286.9,-1245.37 323.19,-1217.09 334.93,-1207.94 347.93,-1198.82 360.66,-1190.38"/>
<polygon fill="#dc2626" stroke="#dc2626" points="361.92,-1192.49 366.43,-1186.6 359.23,-1188.39 361.92,-1192.49"/>
<text text-anchor="middle" x="345.09" y="-1219.49" font-family="Georgia" font-size="8.00">res corporea</text>
</g>
<!-- ResCorporea&#45;&gt;NaturEsprit -->
<g id="edge25" class="edge">
<title>ResCorporea-&gt;NaturEsprit</title>
<path fill="none" stroke="#9ca3af" d="M177.62,-1289.1C187.24,-1254.08 197.87,-1215.41 205.5,-1187.65"/>
<polygon fill="#9ca3af" stroke="#9ca3af" points="207.78,-1188.63 207.27,-1181.23 203.05,-1187.33 207.78,-1188.63"/>
<text text-anchor="middle" x="214.95" y="-1219.49" font-family="Georgia" font-size="8.00">distinction</text>
</g>
<!-- Attributum -->
<g id="node5" class="node">
<title>Attributum</title>
<ellipse fill="#3b82f6" stroke="black" cx="210" cy="-985.8" rx="66.45" ry="66.45"/>
<text text-anchor="middle" x="210" y="-1004.7" font-family="Georgia" font-size="9.00" fill="white">ATTRIBUTUM</text>
<text text-anchor="middle" x="210" y="-993.9" font-family="Georgia" font-size="9.00" fill="white">(attribut)</text>
<text text-anchor="middle" x="210" y="-983.1" font-family="Georgia" font-size="9.00" fill="white">substances accessibles</text>
<text text-anchor="middle" x="210" y="-972.3" font-family="Georgia" font-size="9.00" fill="white">par attributs</text>
<text text-anchor="middle" x="210" y="-961.5" font-family="Georgia" font-size="9.00" fill="white">qualité distinctive</text>
</g>
<!-- Substantia&#45;&gt;Attributum -->
<g id="edge3" class="edge">
<title>Substantia-&gt;Attributum</title>
<path fill="none" stroke="#3b82f6" d="M368.86,-1110.09C342.93,-1093.13 312.45,-1072.38 286,-1052.24 279.21,-1047.07 272.24,-1041.49 265.4,-1035.83"/>
<polygon fill="#3b82f6" stroke="#3b82f6" points="267.27,-1034.2 260.33,-1031.59 264.13,-1037.96 267.27,-1034.2"/>
<text text-anchor="middle" x="350.14" y="-1072.64" font-family="Georgia" font-size="8.00">accessibles par</text>
</g>
<!-- Ambiguite -->
<g id="node24" class="node">
<title>Ambiguite</title>
<polygon fill="#6b7280" stroke="black" points="576.76,-1016.8 473.24,-1016.8 473.24,-954.8 576.76,-954.8 576.76,-1016.8"/>
<text text-anchor="middle" x="525" y="-1004.7" font-family="Georgia" font-size="9.00" fill="white">AMBIGUÏTÉ</text>
<text text-anchor="middle" x="525" y="-993.9" font-family="Georgia" font-size="9.00" fill="white">SUBSTANTIA</text>
<text text-anchor="middle" x="525" y="-983.1" font-family="Georgia" font-size="9.00" fill="white">= être substance</text>
<text text-anchor="middle" x="525" y="-972.3" font-family="Georgia" font-size="9.00" fill="white">= étant substance</text>
<text text-anchor="middle" x="525" y="-961.5" font-family="Georgia" font-size="9.00" fill="white">comme οὐσία antique</text>
</g>
<!-- Substantia&#45;&gt;Ambiguite -->
<g id="edge26" class="edge">
<title>Substantia-&gt;Ambiguite</title>
<path fill="none" stroke="#6b7280" d="M458.16,-1097.51C472.45,-1073.84 489.23,-1046.04 502.4,-1024.22"/>
<polygon fill="#6b7280" stroke="#6b7280" points="504.42,-1025.62 505.94,-1018.36 500.23,-1023.09 504.42,-1025.62"/>
<text text-anchor="middle" x="492.12" y="-1072.64" font-family="Georgia" font-size="8.00">ambiguïté</text>
</g>
<!-- Extensio -->
<g id="node4" class="node">
<title>Extensio</title>
<polygon fill="#ef4444" stroke="black" points="971.13,-755.96 847.27,-755.96 809,-873.75 770.73,-755.96 646.87,-755.96 747.07,-683.16 708.8,-565.36 809,-638.16 909.2,-565.36 870.93,-683.16 971.13,-755.96"/>
<text text-anchor="middle" x="809" y="-743.86" font-family="Georgia" font-size="9.00" fill="white">EXTENSIO</text>
<text text-anchor="middle" x="809" y="-733.06" font-family="Georgia" font-size="9.00" fill="white">(étendue)</text>
<text text-anchor="middle" x="809" y="-722.26" font-family="Georgia" font-size="9.00" fill="white">longueur, largeur</text>
<text text-anchor="middle" x="809" y="-711.46" font-family="Georgia" font-size="9.00" fill="white">profondeur</text>
<text text-anchor="middle" x="809" y="-700.66" font-family="Georgia" font-size="9.00" fill="white">nature de la substance</text>
<text text-anchor="middle" x="809" y="-689.86" font-family="Georgia" font-size="9.00" fill="white">corporelle</text>
</g>
<!-- Extensio&#45;&gt;Extensio -->
<g id="edge28" class="edge">
<title>Extensio-&gt;Extensio</title>
<path fill="none" stroke="#ef4444" stroke-dasharray="5,2" d="M960.45,-747.78C977.84,-742.53 989.13,-733.12 989.13,-719.56 989.13,-691.34 940.29,-681.11 889.32,-688.89"/>
<polygon fill="#ef4444" stroke="#ef4444" points="889.11,-686.44 882.63,-690.04 889.94,-691.27 889.11,-686.44"/>
<text text-anchor="middle" x="1027.5" y="-726.76" font-family="Georgia" font-size="8.00">sine figura vel motu</text>
<text text-anchor="middle" x="1027.5" y="-717.16" font-family="Georgia" font-size="8.00">reste compréhensible</text>
<text text-anchor="middle" x="1027.5" y="-707.56" font-family="Georgia" font-size="8.00">(priorité ontologique)</text>
</g>
<!-- Praesupponit -->
<g id="node7" class="node">
<title>Praesupponit</title>
<ellipse fill="#1d4ed8" stroke="black" cx="653" cy="-985.8" rx="58.25" ry="58.25"/>
<text text-anchor="middle" x="653" y="-1004.7" font-family="Georgia" font-size="9.00" fill="white">PRÉSUPPOSE</text>
<text text-anchor="middle" x="653" y="-993.9" font-family="Georgia" font-size="9.00" fill="white">(praesupponit)</text>
<text text-anchor="middle" x="653" y="-983.1" font-family="Georgia" font-size="9.00" fill="white">étendue doit 'être'</text>
<text text-anchor="middle" x="653" y="-972.3" font-family="Georgia" font-size="9.00" fill="white">avant toute autre</text>
<text text-anchor="middle" x="653" y="-961.5" font-family="Georgia" font-size="9.00" fill="white">détermination</text>
</g>
<!-- Extensio&#45;&gt;Praesupponit -->
<g id="edge6" class="edge">
<title>Extensio-&gt;Praesupponit</title>
<path fill="none" stroke="#1d4ed8" d="M776.56,-775.51C750.2,-820.15 713.17,-882.88 686.53,-928.01"/>
<polygon fill="#1d4ed8" stroke="#1d4ed8" points="684.56,-926.52 683.11,-933.79 688.78,-929.01 684.56,-926.52"/>
<text text-anchor="middle" x="728.18" y="-894.15" font-family="Georgia" font-size="8.00">présuppose</text>
</g>
<!-- Divisio -->
<g id="node8" class="node">
<title>Divisio</title>
<polygon fill="#059669" stroke="black" points="889,-519.76 807.1,-388.24 970.9,-388.24 889,-519.76"/>
<text text-anchor="middle" x="889" y="-450.98" font-family="Georgia" font-size="9.00" fill="white">DIVISION</text>
<text text-anchor="middle" x="889" y="-440.18" font-family="Georgia" font-size="9.00" fill="white">(divisio)</text>
<text text-anchor="middle" x="889" y="-429.38" font-family="Georgia" font-size="9.00" fill="white">mode de</text>
<text text-anchor="middle" x="889" y="-418.58" font-family="Georgia" font-size="9.00" fill="white">l'étendue</text>
<text text-anchor="middle" x="889" y="-407.78" font-family="Georgia" font-size="9.00" fill="white">divisibilité</text>
</g>
<!-- Extensio&#45;&gt;Divisio -->
<g id="edge7" class="edge">
<title>Extensio-&gt;Divisio</title>
<path fill="none" stroke="#059669" d="M837.43,-617.1C848.16,-578.83 860.1,-536.21 869.79,-501.64"/>
<polygon fill="#059669" stroke="#059669" points="872.13,-502.35 871.66,-494.94 867.42,-501.02 872.13,-502.35"/>
<text text-anchor="middle" x="868.43" y="-540.16" font-family="Georgia" font-size="8.00">mode</text>
</g>
<!-- Figura -->
<g id="node9" class="node">
<title>Figura</title>
<polygon fill="#10b981" stroke="black" points="1063,-519.76 989,-388.24 1137,-388.24 1063,-519.76"/>
<text text-anchor="middle" x="1063" y="-450.98" font-family="Georgia" font-size="9.00" fill="white">FIGURE</text>
<text text-anchor="middle" x="1063" y="-440.18" font-family="Georgia" font-size="9.00" fill="white">(figura)</text>
<text text-anchor="middle" x="1063" y="-429.38" font-family="Georgia" font-size="9.00" fill="white">mode de</text>
<text text-anchor="middle" x="1063" y="-418.58" font-family="Georgia" font-size="9.00" fill="white">l'étendue</text>
<text text-anchor="middle" x="1063" y="-407.78" font-family="Georgia" font-size="9.00" fill="white">plasticité</text>
</g>
<!-- Extensio&#45;&gt;Figura -->
<g id="edge8" class="edge">
<title>Extensio-&gt;Figura</title>
<path fill="none" stroke="#10b981" d="M889.02,-628.62C935.4,-576.5 991.51,-513.43 1027.23,-473.29"/>
<polygon fill="#10b981" stroke="#10b981" points="1028.95,-475.04 1031.77,-468.18 1025.29,-471.78 1028.95,-475.04"/>
<text text-anchor="middle" x="976.13" y="-540.16" font-family="Georgia" font-size="8.00">mode</text>
</g>
<!-- Motus -->
<g id="node10" class="node">
<title>Motus</title>
<polygon fill="#34d399" stroke="black" points="1287,-519.76 1154.89,-388.24 1419.11,-388.24 1287,-519.76"/>
<text text-anchor="middle" x="1287" y="-450.98" font-family="Georgia" font-size="9.00" fill="#1f2937">MOUVEMENT</text>
<text text-anchor="middle" x="1287" y="-440.18" font-family="Georgia" font-size="9.00" fill="#1f2937">(motus)</text>
<text text-anchor="middle" x="1287" y="-429.38" font-family="Georgia" font-size="9.00" fill="#1f2937">mode de</text>
<text text-anchor="middle" x="1287" y="-418.58" font-family="Georgia" font-size="9.00" fill="#1f2937">l'étendue</text>
<text text-anchor="middle" x="1287" y="-407.78" font-family="Georgia" font-size="9.00" fill="#1f2937">changement de lieu</text>
</g>
<!-- Extensio&#45;&gt;Motus -->
<g id="edge9" class="edge">
<title>Extensio-&gt;Motus</title>
<path fill="none" stroke="#34d399" d="M871.62,-682.07C939.44,-642.46 1050.71,-577.15 1146,-519.76 1172.32,-503.91 1201.26,-486.17 1226.03,-470.9"/>
<polygon fill="#34d399" stroke="#34d399" points="1227.28,-473 1231.95,-467.24 1224.71,-468.83 1227.28,-473"/>
<text text-anchor="middle" x="1119.52" y="-540.16" font-family="Georgia" font-size="8.00">mode</text>
</g>
<!-- Divisibile -->
<g id="node17" class="node">
<title>Divisibile</title>
<ellipse fill="#22c55e" stroke="black" cx="470" cy="-432.08" rx="43.49" ry="43.84"/>
<text text-anchor="middle" x="470" y="-450.98" font-family="Georgia" font-size="9.00" fill="white">DIVISIBLE</text>
<text text-anchor="middle" x="470" y="-440.18" font-family="Georgia" font-size="9.00" fill="white">(divisibile)</text>
<text text-anchor="middle" x="470" y="-429.38" font-family="Georgia" font-size="9.00" fill="white">omnimodo</text>
<text text-anchor="middle" x="470" y="-418.58" font-family="Georgia" font-size="9.00" fill="white">divisibile</text>
<text text-anchor="middle" x="470" y="-407.78" font-family="Georgia" font-size="9.00" fill="white">tous modes</text>
</g>
<!-- Extensio&#45;&gt;Divisibile -->
<g id="edge16" class="edge">
<title>Extensio-&gt;Divisibile</title>
<path fill="none" stroke="#22c55e" d="M732.41,-639.35C704.44,-613.4 671.42,-585.97 638,-565.36 590.85,-536.29 564.28,-555.56 522,-519.76 509.34,-509.04 498.94,-494.42 490.86,-480.24"/>
<polygon fill="#22c55e" stroke="#22c55e" points="493.07,-479.19 487.57,-474.22 488.77,-481.54 493.07,-479.19"/>
<text text-anchor="middle" x="608.32" y="-540.16" font-family="Georgia" font-size="8.00">omnimodo</text>
</g>
<!-- Figurabile -->
<g id="node18" class="node">
<title>Figurabile</title>
<ellipse fill="#16a34a" stroke="black" cx="590" cy="-432.08" rx="58.55" ry="43.84"/>
<text text-anchor="middle" x="590" y="-450.98" font-family="Georgia" font-size="9.00" fill="white">PLASTIQUE</text>
<text text-anchor="middle" x="590" y="-440.18" font-family="Georgia" font-size="9.00" fill="white">(figurabile)</text>
<text text-anchor="middle" x="590" y="-429.38" font-family="Georgia" font-size="9.00" fill="white">capable de</text>
<text text-anchor="middle" x="590" y="-418.58" font-family="Georgia" font-size="9.00" fill="white">figures multiples</text>
<text text-anchor="middle" x="590" y="-407.78" font-family="Georgia" font-size="9.00" fill="white">modifications</text>
</g>
<!-- Extensio&#45;&gt;Figurabile -->
<g id="edge17" class="edge">
<title>Extensio-&gt;Figurabile</title>
<path fill="none" stroke="#16a34a" d="M720.87,-603.68C686.77,-559.23 649.8,-511.03 623.88,-477.24"/>
<polygon fill="#16a34a" stroke="#16a34a" points="625.97,-475.95 619.77,-471.88 622.08,-478.93 625.97,-475.95"/>
<text text-anchor="middle" x="692.79" y="-540.16" font-family="Georgia" font-size="8.00">omnimodo</text>
</g>
<!-- Mobile -->
<g id="node19" class="node">
<title>Mobile</title>
<ellipse fill="#15803d" stroke="black" cx="351" cy="-432.08" rx="57.79" ry="43.84"/>
<text text-anchor="middle" x="351" y="-450.98" font-family="Georgia" font-size="9.00" fill="white">MOBILE</text>
<text text-anchor="middle" x="351" y="-440.18" font-family="Georgia" font-size="9.00" fill="white">(mobile)</text>
<text text-anchor="middle" x="351" y="-429.38" font-family="Georgia" font-size="9.00" fill="white">capable de</text>
<text text-anchor="middle" x="351" y="-418.58" font-family="Georgia" font-size="9.00" fill="white">mouvement</text>
<text text-anchor="middle" x="351" y="-407.78" font-family="Georgia" font-size="9.00" fill="white">changement lieu</text>
</g>
<!-- Extensio&#45;&gt;Mobile -->
<g id="edge18" class="edge">
<title>Extensio-&gt;Mobile</title>
<path fill="none" stroke="#15803d" d="M729.33,-629.51C702.7,-604.94 671.26,-580.81 638,-565.36 547.43,-523.31 500.24,-576.41 418,-519.76 402.65,-509.19 389.23,-494.01 378.52,-479.3"/>
<polygon fill="#15803d" stroke="#15803d" points="380.7,-478.14 374.66,-473.83 376.7,-480.96 380.7,-478.14"/>
<text text-anchor="middle" x="508.1" y="-540.16" font-family="Georgia" font-size="8.00">omnimodo</text>
</g>
<!-- DefExtensio -->
<g id="node27" class="node">
<title>DefExtensio</title>
<polygon fill="#fecaca" stroke="black" points="783.05,-468.48 666.95,-468.48 666.95,-395.68 789.05,-395.68 789.05,-462.48 783.05,-468.48"/>
<polyline fill="none" stroke="black" points="783.05,-468.48 783.05,-462.48"/>
<polyline fill="none" stroke="black" points="789.05,-462.48 783.05,-462.48"/>
<text text-anchor="middle" x="728" y="-456.38" font-family="Georgia" font-size="9.00" fill="#7f1d1d">DÉFINITION EXTENSIO :</text>
<text text-anchor="middle" x="728" y="-445.58" font-family="Georgia" font-size="9.00" fill="#7f1d1d">'Extensio in longum,</text>
<text text-anchor="middle" x="728" y="-434.78" font-family="Georgia" font-size="9.00" fill="#7f1d1d">latum et profundum,</text>
<text text-anchor="middle" x="728" y="-423.98" font-family="Georgia" font-size="9.00" fill="#7f1d1d">substantiae corporeae</text>
<text text-anchor="middle" x="728" y="-413.18" font-family="Georgia" font-size="9.00" fill="#7f1d1d">naturam constituit'</text>
<text text-anchor="middle" x="728" y="-402.38" font-family="Georgia" font-size="9.00" fill="#7f1d1d">(Principia I, 53)</text>
</g>
<!-- Extensio&#45;&gt;DefExtensio -->
<!-- PraecipuaPropr -->
<g id="node6" class="node">
<title>PraecipuaPropr</title>
<ellipse fill="#1e40af" stroke="black" cx="962" cy="-985.8" rx="55.16" ry="55.16"/>
<text text-anchor="middle" x="962" y="-1004.7" font-family="Georgia" font-size="9.00" fill="white">PRAECIPUA</text>
<text text-anchor="middle" x="962" y="-993.9" font-family="Georgia" font-size="9.00" fill="white">PROPRIETAS</text>
<text text-anchor="middle" x="962" y="-983.1" font-family="Georgia" font-size="9.00" fill="white">qualité distinctive</text>
<text text-anchor="middle" x="962" y="-972.3" font-family="Georgia" font-size="9.00" fill="white">constitue nature</text>
<text text-anchor="middle" x="962" y="-961.5" font-family="Georgia" font-size="9.00" fill="white">et essence</text>
</g>
<!-- Attributum&#45;&gt;PraecipuaPropr -->
<g id="edge4" class="edge">
<title>Attributum-&gt;PraecipuaPropr</title>
<path fill="none" stroke="#1e40af" d="M255.66,-1034.27C264.97,-1041.54 275.24,-1048.01 286,-1052.24 383.97,-1090.77 654.39,-1069.79 759.55,-1064.97 821.28,-1062.14 842.3,-1079 898,-1052.24 906.68,-1048.07 914.82,-1042.19 922.19,-1035.63"/>
<polygon fill="#1e40af" stroke="#1e40af" points="923.67,-1037.61 927.09,-1031.03 920.31,-1034.04 923.67,-1037.61"/>
<text text-anchor="middle" x="728" y="-1072.64" font-family="Georgia" font-size="8.00">qualité distinctive</text>
</g>
<!-- CitationAttribut -->
<g id="node26" class="node">
<title>CitationAttribut</title>
<polygon fill="#ecfdf5" stroke="black" stroke-dasharray="5,2" points="258.25,-761.36 155.75,-761.36 155.75,-677.76 264.25,-677.76 264.25,-755.36 258.25,-761.36"/>
<polyline fill="none" stroke="black" stroke-dasharray="5,2" points="258.25,-761.36 258.25,-755.36"/>
<polyline fill="none" stroke="black" stroke-dasharray="5,2" points="264.25,-755.36 258.25,-755.36"/>
<text text-anchor="middle" x="210" y="-749.26" font-family="Georgia" font-size="9.00" fill="#065f46">CITATION CLEF :</text>
<text text-anchor="middle" x="210" y="-738.46" font-family="Georgia" font-size="9.00" fill="#065f46">'Ex quolibet attributo</text>
<text text-anchor="middle" x="210" y="-727.66" font-family="Georgia" font-size="9.00" fill="#065f46">substantia cognoscitur;</text>
<text text-anchor="middle" x="210" y="-716.86" font-family="Georgia" font-size="9.00" fill="#065f46">sed una tamen est</text>
<text text-anchor="middle" x="210" y="-706.06" font-family="Georgia" font-size="9.00" fill="#065f46">cuiusque substantiae</text>
<text text-anchor="middle" x="210" y="-695.26" font-family="Georgia" font-size="9.00" fill="#065f46">praecipua proprietas'</text>
<text text-anchor="middle" x="210" y="-684.46" font-family="Georgia" font-size="9.00" fill="#065f46">(Principia I, 53)</text>
</g>
<!-- Attributum&#45;&gt;CitationAttribut -->
<!-- PraecipuaPropr&#45;&gt;Extensio -->
<g id="edge5" class="edge">
<title>PraecipuaPropr-&gt;Extensio</title>
<path fill="none" stroke="#ef4444" stroke-width="3" d="M934.65,-937.55C910.17,-895.28 874.06,-832.91 846.82,-785.87"/>
<polygon fill="#ef4444" stroke="#ef4444" stroke-width="3" points="849.05,-784.84 843.43,-780.01 844.81,-787.3 849.05,-784.84"/>
<text text-anchor="middle" x="943.76" y="-894.15" font-family="Georgia" font-size="8.00">pour res corporea</text>
</g>
<!-- PresupFond -->
<g id="node28" class="node">
<title>PresupFond</title>
<polygon fill="#dbeafe" stroke="black" points="623.22,-755.96 530.78,-755.96 530.78,-683.16 629.22,-683.16 629.22,-749.96 623.22,-755.96"/>
<polyline fill="none" stroke="black" points="623.22,-755.96 623.22,-749.96"/>
<polyline fill="none" stroke="black" points="629.22,-749.96 623.22,-749.96"/>
<text text-anchor="middle" x="580" y="-743.86" font-family="Georgia" font-size="9.00" fill="#1e40af">PRÉSUPPOSITION :</text>
<text text-anchor="middle" x="580" y="-733.06" font-family="Georgia" font-size="9.00" fill="#1e40af">'Omne aliud quod</text>
<text text-anchor="middle" x="580" y="-722.26" font-family="Georgia" font-size="9.00" fill="#1e40af">corpori tribui potest,</text>
<text text-anchor="middle" x="580" y="-711.46" font-family="Georgia" font-size="9.00" fill="#1e40af">extensionem</text>
<text text-anchor="middle" x="580" y="-700.66" font-family="Georgia" font-size="9.00" fill="#1e40af">praesupponit'</text>
<text text-anchor="middle" x="580" y="-689.86" font-family="Georgia" font-size="9.00" fill="#1e40af">(Principia I, 53)</text>
</g>
<!-- Praesupponit&#45;&gt;PresupFond -->
<!-- ExempleQuant -->
<g id="node29" class="node">
<title>ExempleQuant</title>
<polygon fill="#f0fdf4" stroke="black" points="1113.15,-298.8 1006.85,-298.8 1006.85,-215.2 1119.15,-215.2 1119.15,-292.8 1113.15,-298.8"/>
<polyline fill="none" stroke="black" points="1113.15,-298.8 1113.15,-292.8"/>
<polyline fill="none" stroke="black" points="1119.15,-292.8 1113.15,-292.8"/>
<text text-anchor="middle" x="1063" y="-286.7" font-family="Georgia" font-size="9.00" fill="#15803d">EXEMPLE :</text>
<text text-anchor="middle" x="1063" y="-275.9" font-family="Georgia" font-size="9.00" fill="#15803d">'Unum et idem corpus</text>
<text text-anchor="middle" x="1063" y="-265.1" font-family="Georgia" font-size="9.00" fill="#15803d">retinendo suam eandem</text>
<text text-anchor="middle" x="1063" y="-254.3" font-family="Georgia" font-size="9.00" fill="#15803d">quantitatem, pluribus</text>
<text text-anchor="middle" x="1063" y="-243.5" font-family="Georgia" font-size="9.00" fill="#15803d">diversis modis</text>
<text text-anchor="middle" x="1063" y="-232.7" font-family="Georgia" font-size="9.00" fill="#15803d">potest extendi'</text>
<text text-anchor="middle" x="1063" y="-221.9" font-family="Georgia" font-size="9.00" fill="#15803d">(Principia I, 64)</text>
</g>
<!-- Figura&#45;&gt;ExempleQuant -->
<!-- ForceExclue -->
<g id="node25" class="node">
<title>ForceExclue</title>
<polygon fill="#4b5563" stroke="black" points="1333.8,-288 1240.2,-288 1240.2,-226 1333.8,-226 1333.8,-288"/>
<text text-anchor="middle" x="1287" y="-275.9" font-family="Georgia" font-size="9.00" fill="white">'FORCE' EXCLUE</text>
<text text-anchor="middle" x="1287" y="-265.1" font-family="Georgia" font-size="9.00" fill="white">ne contribue pas</text>
<text text-anchor="middle" x="1287" y="-254.3" font-family="Georgia" font-size="9.00" fill="white">à déterminer être</text>
<text text-anchor="middle" x="1287" y="-243.5" font-family="Georgia" font-size="9.00" fill="white">mouvement = pur</text>
<text text-anchor="middle" x="1287" y="-232.7" font-family="Georgia" font-size="9.00" fill="white">changement lieu</text>
</g>
<!-- Motus&#45;&gt;ForceExclue -->
<g id="edge27" class="edge">
<title>Motus-&gt;ForceExclue</title>
<path fill="none" stroke="#4b5563" d="M1287,-387.85C1287,-359.93 1287,-323.91 1287,-296.89"/>
<polygon fill="#4b5563" stroke="#4b5563" points="1289.45,-296.97 1287,-289.97 1284.55,-296.97 1289.45,-296.97"/>
<text text-anchor="middle" x="1307.41" y="-319.2" font-family="Georgia" font-size="8.00">exclut force</text>
</g>
<!-- Durities -->
<g id="node11" class="node">
<title>Durities</title>
<polygon fill="#ec4899" stroke="black" points="1112,-1047.8 1042.25,-985.8 1112,-923.8 1181.75,-985.8 1112,-1047.8"/>
<text text-anchor="middle" x="1112" y="-1004.7" font-family="Georgia" font-size="9.00" fill="white">DURETÉ</text>
<text text-anchor="middle" x="1112" y="-993.9" font-family="Georgia" font-size="9.00" fill="white">(durities)</text>
<text text-anchor="middle" x="1112" y="-983.1" font-family="Georgia" font-size="9.00" fill="white">peut être ôtée</text>
<text text-anchor="middle" x="1112" y="-972.3" font-family="Georgia" font-size="9.00" fill="white">résistance au</text>
<text text-anchor="middle" x="1112" y="-961.5" font-family="Georgia" font-size="9.00" fill="white">mouvement</text>
</g>
<!-- Durities&#45;&gt;Extensio -->
<g id="edge13" class="edge">
<title>Durities-&gt;Extensio</title>
<path fill="none" stroke="#ec4899" stroke-dasharray="5,2" d="M1077.24,-954.48C1022.84,-907.04 917.48,-815.15 856.24,-761.75"/>
<polygon fill="#ec4899" stroke="#ec4899" points="858.12,-760.14 851.23,-757.38 854.9,-763.83 858.12,-760.14"/>
<text text-anchor="middle" x="1037.88" y="-894.15" font-family="Georgia" font-size="8.00">peut être ôtée</text>
</g>
<!-- Sensus -->
<g id="node14" class="node">
<title>Sensus</title>
<polygon fill="#f97316" stroke="black" points="1536.44,-750.56 1431.56,-750.56 1431.56,-688.56 1536.44,-688.56 1536.44,-750.56"/>
<text text-anchor="middle" x="1484" y="-738.46" font-family="Georgia" font-size="9.00" fill="white">SENS DU TOUCHER</text>
<text text-anchor="middle" x="1484" y="-727.66" font-family="Georgia" font-size="9.00" fill="white">(sensus)</text>
<text text-anchor="middle" x="1484" y="-716.86" font-family="Georgia" font-size="9.00" fill="white">indique résistance</text>
<text text-anchor="middle" x="1484" y="-706.06" font-family="Georgia" font-size="9.00" fill="white">parties au mouvement</text>
<text text-anchor="middle" x="1484" y="-695.26" font-family="Georgia" font-size="9.00" fill="white">de la main</text>
</g>
<!-- Durities&#45;&gt;Sensus -->
<g id="edge10" class="edge">
<title>Durities-&gt;Sensus</title>
<path fill="none" stroke="#f97316" d="M1173.64,-977.97C1242.74,-967.22 1354.09,-940.22 1423,-873.75 1454.95,-842.93 1470.57,-793.24 1477.93,-758.84"/>
<polygon fill="#f97316" stroke="#f97316" points="1480.25,-759.72 1479.24,-752.37 1475.45,-758.74 1480.25,-759.72"/>
<text text-anchor="middle" x="1418.95" y="-894.15" font-family="Georgia" font-size="8.00">éprouvée par</text>
</g>
<!-- Pondus -->
<g id="node12" class="node">
<title>Pondus</title>
<polygon fill="#db2777" stroke="black" points="375,-1047.8 294.9,-985.8 375,-923.8 455.1,-985.8 375,-1047.8"/>
<text text-anchor="middle" x="375" y="-1004.7" font-family="Georgia" font-size="9.00" fill="white">POIDS</text>
<text text-anchor="middle" x="375" y="-993.9" font-family="Georgia" font-size="9.00" fill="white">(pondus)</text>
<text text-anchor="middle" x="375" y="-983.1" font-family="Georgia" font-size="9.00" fill="white">peut être ôté</text>
<text text-anchor="middle" x="375" y="-972.3" font-family="Georgia" font-size="9.00" fill="white">ne constitue pas</text>
<text text-anchor="middle" x="375" y="-961.5" font-family="Georgia" font-size="9.00" fill="white">être propre</text>
</g>
<!-- Pondus&#45;&gt;Extensio -->
<g id="edge14" class="edge">
<title>Pondus-&gt;Extensio</title>
<path fill="none" stroke="#db2777" stroke-dasharray="5,2" d="M412.39,-952.4C427.59,-940.59 445.82,-928.02 464,-919.35 536.15,-884.92 567.59,-911.61 638,-873.75 687.94,-846.89 735.19,-802.57 767.31,-768.49"/>
<polygon fill="#db2777" stroke="#db2777" points="768.71,-770.58 771.7,-763.79 765.13,-767.24 768.71,-770.58"/>
<text text-anchor="middle" x="613.47" y="-894.15" font-family="Georgia" font-size="8.00">peut être ôtée</text>
</g>
<!-- Color -->
<g id="node13" class="node">
<title>Color</title>
<polygon fill="#be185d" stroke="black" points="809,-1047.8 728.9,-985.8 809,-923.8 889.1,-985.8 809,-1047.8"/>
<text text-anchor="middle" x="809" y="-1004.7" font-family="Georgia" font-size="9.00" fill="white">COULEUR</text>
<text text-anchor="middle" x="809" y="-993.9" font-family="Georgia" font-size="9.00" fill="white">(color)</text>
<text text-anchor="middle" x="809" y="-983.1" font-family="Georgia" font-size="9.00" fill="white">peut être ôtée</text>
<text text-anchor="middle" x="809" y="-972.3" font-family="Georgia" font-size="9.00" fill="white">ne constitue pas</text>
<text text-anchor="middle" x="809" y="-961.5" font-family="Georgia" font-size="9.00" fill="white">être propre</text>
</g>
<!-- Color&#45;&gt;Extensio -->
<g id="edge15" class="edge">
<title>Color-&gt;Extensio</title>
<path fill="none" stroke="#be185d" stroke-dasharray="5,2" d="M809,-923.18C809,-910.87 809,-897.42 809,-883.48"/>
<polygon fill="#be185d" stroke="#be185d" points="811.45,-883.73 809,-876.73 806.55,-883.73 811.45,-883.73"/>
<text text-anchor="middle" x="832.89" y="-894.15" font-family="Georgia" font-size="8.00">peut être ôtée</text>
</g>
<!-- Resistere -->
<g id="node15" class="node">
<title>Resistere</title>
<polygon fill="#ea580c" stroke="black" points="1530.8,-463.08 1437.2,-463.08 1437.2,-401.08 1530.8,-401.08 1530.8,-463.08"/>
<text text-anchor="middle" x="1484" y="-450.98" font-family="Georgia" font-size="9.00" fill="white">RÉSISTER</text>
<text text-anchor="middle" x="1484" y="-440.18" font-family="Georgia" font-size="9.00" fill="white">(resistere)</text>
<text text-anchor="middle" x="1484" y="-429.38" font-family="Georgia" font-size="9.00" fill="white">parties résistent</text>
<text text-anchor="middle" x="1484" y="-418.58" font-family="Georgia" font-size="9.00" fill="white">mouvement main</text>
<text text-anchor="middle" x="1484" y="-407.78" font-family="Georgia" font-size="9.00" fill="white">quand rencontre</text>
</g>
<!-- Sensus&#45;&gt;Resistere -->
<g id="edge11" class="edge">
<title>Sensus-&gt;Resistere</title>
<path fill="none" stroke="#ea580c" d="M1484,-688.27C1484,-636.14 1484,-529.48 1484,-471.94"/>
<polygon fill="#ea580c" stroke="#ea580c" points="1486.45,-471.99 1484,-464.99 1481.55,-471.99 1486.45,-471.99"/>
<text text-anchor="middle" x="1497.48" y="-540.16" font-family="Georgia" font-size="8.00">indique</text>
</g>
<!-- ExperimentMental -->
<g id="node16" class="node">
<title>ExperimentMental</title>
<polygon fill="#c2410c" stroke="black" points="1413.8,-750.56 1320.2,-750.56 1320.2,-688.56 1413.8,-688.56 1413.8,-750.56"/>
<text text-anchor="middle" x="1367" y="-738.46" font-family="Georgia" font-size="9.00" fill="white">EXPÉRIMENT</text>
<text text-anchor="middle" x="1367" y="-727.66" font-family="Georgia" font-size="9.00" fill="white">MENTAL</text>
<text text-anchor="middle" x="1367" y="-716.86" font-family="Georgia" font-size="9.00" fill="white">si corps reculent</text>
<text text-anchor="middle" x="1367" y="-706.06" font-family="Georgia" font-size="9.00" fill="white">même vitesse</text>
<text text-anchor="middle" x="1367" y="-695.26" font-family="Georgia" font-size="9.00" fill="white">nulle dureté</text>
</g>
<!-- Resistere&#45;&gt;ExperimentMental -->
<g id="edge12" class="edge">
<title>Resistere-&gt;ExperimentMental</title>
<path fill="none" stroke="#c2410c" d="M1469.11,-463.51C1456.29,-490.12 1437.61,-529.94 1423,-565.36 1407.04,-604.05 1390.84,-649.13 1380,-680.32"/>
<polygon fill="#c2410c" stroke="#c2410c" points="1377.7,-679.49 1377.72,-686.91 1382.33,-681.09 1377.7,-679.49"/>
<text text-anchor="middle" x="1454.1" y="-540.16" font-family="Georgia" font-size="8.00">expériment</text>
</g>
<!-- CapaxMutationum -->
<g id="node20" class="node">
<title>CapaxMutationum</title>
<polygon fill="#fef3c7" stroke="black" points="510.8,-288 423.2,-288 423.2,-226 516.8,-226 516.8,-282 510.8,-288"/>
<polyline fill="none" stroke="black" points="510.8,-288 510.8,-282"/>
<polyline fill="none" stroke="black" points="516.8,-282 510.8,-282"/>
<text text-anchor="middle" x="470" y="-275.9" font-family="Georgia" font-size="9.00" fill="#92400e">CAPAX</text>
<text text-anchor="middle" x="470" y="-265.1" font-family="Georgia" font-size="9.00" fill="#92400e">MUTATIONUM</text>
<text text-anchor="middle" x="470" y="-254.3" font-family="Georgia" font-size="9.00" fill="#92400e">capable de</text>
<text text-anchor="middle" x="470" y="-243.5" font-family="Georgia" font-size="9.00" fill="#92400e">transformations</text>
<text text-anchor="middle" x="470" y="-232.7" font-family="Georgia" font-size="9.00" fill="#92400e">se maintient</text>
</g>
<!-- Divisibile&#45;&gt;CapaxMutationum -->
<g id="edge19" class="edge">
<title>Divisibile-&gt;CapaxMutationum</title>
<path fill="none" stroke="#fef3c7" d="M470,-387.85C470,-359.93 470,-323.91 470,-296.89"/>
<polygon fill="#fef3c7" stroke="#fef3c7" points="472.45,-296.97 470,-289.97 467.55,-296.97 472.45,-296.97"/>
<text text-anchor="middle" x="483.45" y="-319.2" font-family="Georgia" font-size="8.00">capable</text>
</g>
<!-- Figurabile&#45;&gt;CapaxMutationum -->
<g id="edge20" class="edge">
<title>Figurabile-&gt;CapaxMutationum</title>
<path fill="none" stroke="#fef3c7" d="M563.37,-392.67C543.17,-363.53 515.57,-323.73 495.62,-294.96"/>
<polygon fill="#fef3c7" stroke="#fef3c7" points="497.84,-293.86 491.84,-289.5 493.82,-296.65 497.84,-293.86"/>
<text text-anchor="middle" x="529.17" y="-319.2" font-family="Georgia" font-size="8.00">capable</text>
</g>
<!-- Mobile&#45;&gt;CapaxMutationum -->
<g id="edge21" class="edge">
<title>Mobile-&gt;CapaxMutationum</title>
<path fill="none" stroke="#fef3c7" d="M377.41,-392.67C397.44,-363.53 424.81,-323.73 444.59,-294.96"/>
<polygon fill="#fef3c7" stroke="#fef3c7" points="446.39,-296.66 448.34,-289.51 442.35,-293.89 446.39,-296.66"/>
<text text-anchor="middle" x="441.56" y="-319.2" font-family="Georgia" font-size="8.00">capable</text>
</g>
<!-- Remanet -->
<g id="node21" class="node">
<title>Remanet</title>
<polygon fill="#fbbf24" stroke="black" points="516.9,-169.6 417.1,-169.6 417.1,-107.6 522.9,-107.6 522.9,-163.6 516.9,-169.6"/>
<polyline fill="none" stroke="black" points="516.9,-169.6 516.9,-163.6"/>
<polyline fill="none" stroke="black" points="522.9,-163.6 516.9,-163.6"/>
<text text-anchor="middle" x="470" y="-157.5" font-family="Georgia" font-size="9.00" fill="#92400e">REMANET</text>
<text text-anchor="middle" x="470" y="-146.7" font-family="Georgia" font-size="9.00" fill="#92400e">(demeure)</text>
<text text-anchor="middle" x="470" y="-135.9" font-family="Georgia" font-size="9.00" fill="#92400e">constance permanente</text>
<text text-anchor="middle" x="470" y="-125.1" font-family="Georgia" font-size="9.00" fill="#92400e">au milieu</text>
<text text-anchor="middle" x="470" y="-114.3" font-family="Georgia" font-size="9.00" fill="#92400e">transformations</text>
</g>
<!-- CapaxMutationum&#45;&gt;Remanet -->
<g id="edge22" class="edge">
<title>CapaxMutationum-&gt;Remanet</title>
<path fill="none" stroke="#fbbf24" d="M470,-225.72C470,-211.17 470,-193.57 470,-178.08"/>
<polygon fill="#fbbf24" stroke="#fbbf24" points="472.45,-178.24 470,-171.24 467.55,-178.24 472.45,-178.24"/>
<text text-anchor="middle" x="491.93" y="-190" font-family="Georgia" font-size="8.00">se maintient</text>
</g>
<!-- Substantialitas -->
<g id="node22" class="node">
<title>Substantialitas</title>
<polygon fill="#f59e0b" stroke="black" points="514.4,-62 419.6,-62 419.6,0 520.4,0 520.4,-56 514.4,-62"/>
<polyline fill="none" stroke="black" points="514.4,-62 514.4,-56"/>
<polyline fill="none" stroke="black" points="520.4,-56 514.4,-56"/>
<text text-anchor="middle" x="470" y="-49.9" font-family="Georgia" font-size="9.00" fill="white">SUBSTANTIALITÉ</text>
<text text-anchor="middle" x="470" y="-39.1" font-family="Georgia" font-size="9.00" fill="white">ce qui assure</text>
<text text-anchor="middle" x="470" y="-28.3" font-family="Georgia" font-size="9.00" fill="white">constance</text>
<text text-anchor="middle" x="470" y="-17.5" font-family="Georgia" font-size="9.00" fill="white">proprement étant</text>
<text text-anchor="middle" x="470" y="-6.7" font-family="Georgia" font-size="9.00" fill="white">caractérise substance</text>
</g>
<!-- Remanet&#45;&gt;Substantialitas -->
<g id="edge23" class="edge">
<title>Remanet-&gt;Substantialitas</title>
<path fill="none" stroke="#f59e0b" d="M470,-107.34C470,-95.85 470,-82.61 470,-70.46"/>
<polygon fill="#f59e0b" stroke="#f59e0b" points="472.45,-70.78 470,-63.78 467.55,-70.78 472.45,-70.78"/>
<text text-anchor="middle" x="486.23" y="-82.4" font-family="Georgia" font-size="8.00">constitue</text>
</g>
</g>
</svg>